<?xml version="1.0" encoding="UTF-8" standalone="no"?>
<!-- Created with Inkscape (http://www.inkscape.org/) -->

<svg
   width="100mm"
   height="50mm"
   viewBox="0 0 100 50"
   version="1.1"
   id="svg1"
   xml:space="preserve"
   inkscape:version="1.3.2 (091e20e, 2023-11-25, custom)"
   sodipodi:docname="Logo_AE_LAMOS_XX.svg"
   xmlns:inkscape="http://www.inkscape.org/namespaces/inkscape"
   xmlns:sodipodi="http://sodipodi.sourceforge.net/DTD/sodipodi-0.dtd"
   xmlns="http://www.w3.org/2000/svg"
   xmlns:svg="http://www.w3.org/2000/svg"><sodipodi:namedview
     id="namedview1"
     pagecolor="#505050"
     bordercolor="#eeeeee"
     borderopacity="1"
     inkscape:showpageshadow="0"
     inkscape:pageopacity="0"
     inkscape:pagecheckerboard="0"
     inkscape:deskcolor="#505050"
     inkscape:document-units="mm"
     inkscape:zoom="0.85603608"
     inkscape:cx="334.68215"
     inkscape:cy="195.66932"
     inkscape:window-width="1920"
     inkscape:window-height="974"
     inkscape:window-x="-11"
     inkscape:window-y="-11"
     inkscape:window-maximized="1"
     inkscape:current-layer="svg1" /><defs
     id="defs1"><rect
       x="488.66904"
       y="82.071342"
       width="264.38248"
       height="88.96283"
       id="rect8" /><rect
       x="541.92145"
       y="108.38429"
       width="191.70863"
       height="72.047363"
       id="rect4" /><rect
       x="303.89905"
       y="813.35083"
       width="365.03326"
       height="189.60466"
       id="rect3" /><rect
       x="389.84134"
       y="772.59467"
       width="507.67975"
       height="151.50652"
       id="rect2" /><rect
       x="263.12949"
       y="849.53235"
       width="361.67468"
       height="143.85814"
       id="rect1" /></defs><path
     style="fill:#000000;stroke:none;stroke-width:0.001;stroke-dasharray:none"
     d="m 92.329337,174.50305 c -0.389624,-0.54009 -0.700577,-0.9846 -0.691008,-0.98778 0.0096,-0.003 0.213313,0.0306 0.452764,0.0751 0.239451,0.0445 0.45067,0.081 0.469375,0.081 0.01871,0 0.197271,-0.13592 0.396811,-0.30204 0.19954,-0.16612 0.366255,-0.29859 0.370478,-0.29436 0.01065,0.0106 -0.268609,2.41083 -0.280446,2.41041 -0.0053,-1.8e-4 -0.328351,-0.44222 -0.717974,-0.98232 z m -4.352193,-2.08747 c -0.05381,-0.004 -0.229906,-0.015 -0.39133,-0.0253 -1.5301,-0.0978 -3.124231,-0.46171 -4.580331,-1.04569 -3.497443,-1.40266 -6.323489,-4.10146 -7.870628,-7.51623 -0.752467,-1.66081 -1.177259,-3.35017 -1.337977,-5.32101 -0.03593,-0.44067 -0.03034,-1.80848 0.0093,-2.26793 0.132979,-1.54208 0.447483,-2.90373 0.982711,-4.25465 1.598372,-4.03433 4.933316,-7.08307 9.04374,-8.26762 1.790057,-0.51587 3.673675,-0.67826 5.878833,-0.50683 1.203083,0.0935 2.087568,0.24983 3.032802,0.53595 0.02188,0.007 0.02596,-0.0105 0.02269,-0.0951 -0.0022,-0.0568 -0.01234,-0.34336 -0.02255,-0.63686 -0.01021,-0.2935 -0.03071,-0.80178 -0.04554,-1.12952 -0.02321,-0.5127 -0.04197,-0.86518 -0.107415,-2.0189 -0.0132,-0.2327 -0.0266,-0.24339 0.200629,0.16009 2.481397,4.40615 4.155457,9.00513 4.888504,13.42971 0.313953,1.89498 0.453661,3.81563 0.382341,5.25626 -0.02777,0.56101 0.0031,0.47606 -0.313362,0.86308 -0.745509,0.9118 -1.508858,1.7073 -2.150366,2.24094 -1.153346,0.9594 -2.343877,1.52441 -3.797673,1.80234 -0.370698,0.0709 -0.373542,0.0713 -0.373542,0.0552 0,-0.008 0.03946,-0.18072 0.0877,-0.38441 0.738144,-3.11715 1.184536,-7.33891 1.293111,-12.22962 l 0.01213,-0.5463 -0.06056,0.008 c -0.03331,0.005 -0.256667,0.0325 -0.496356,0.062 -2.725137,0.33515 -5.41536,1.0536 -7.90663,2.11155 -4.038543,1.71502 -6.985124,4.20765 -7.764761,6.56853 -0.131115,0.39704 -0.212307,0.92356 -0.187775,1.21771 0.0219,0.26265 0.240379,1.04869 0.343241,1.23494 0.3603,0.65237 0.967359,1.23398 1.773687,1.69934 1.770315,1.02171 4.474762,1.56321 7.569908,1.51568 0.821257,-0.0126 1.627888,-0.0533 1.610585,-0.0813 -0.0042,-0.007 -0.07512,-0.0536 -0.157639,-0.10399 -0.08252,-0.0504 -0.297109,-0.20126 -0.476865,-0.33519 -0.316805,-0.23604 -0.343233,-0.25155 -0.861582,-0.50565 -0.675551,-0.33116 -0.759813,-0.4014 -0.585873,-0.48837 0.108305,-0.0541 0.534371,-0.0512 0.788035,0.006 0.559717,0.12511 1.351467,0.44546 1.942376,0.7859 0.45925,0.26458 0.589818,0.30985 1.08505,0.37613 0.339041,0.0454 1.050089,0.0625 1.431909,0.0346 1.052168,-0.0771 1.965599,-0.31879 2.792668,-0.73899 0.456249,-0.23181 0.787272,-0.44912 0.851413,-0.55896 0.03144,-0.0538 0.03285,-0.0689 0.0133,-0.14198 -0.01203,-0.045 -0.04217,-0.10837 -0.06698,-0.1409 -0.06617,-0.0867 -0.04738,-0.13381 0.07862,-0.19701 0.188084,-0.0943 0.317521,-0.11733 0.662277,-0.1177 0.242402,-2.6e-4 0.342679,0.007 0.453154,0.0329 0.1962,0.046 0.311368,0.033 0.495405,-0.0558 0.305906,-0.14753 0.604244,-0.41111 1.37578,-1.2155 0.987296,-1.02934 1.264545,-1.2819 1.980395,-1.80402 1.546257,-1.12781 3.581147,-2.25773 4.437937,-2.46428 0.34334,-0.0828 0.52044,-0.009 0.64931,0.27064 0.12292,0.26668 0.10306,0.35127 -0.24784,1.05557 -0.14624,0.2935 -0.29556,0.61367 -0.33183,0.71151 -0.0363,0.0978 -0.12835,0.43001 -0.20459,0.73819 -0.16165,0.65332 -0.26534,1.00844 -0.40251,1.37854 -0.5231,1.41137 -1.36589,2.57805 -2.5582,3.54135 -1.267927,1.02439 -2.962721,1.81958 -4.472949,2.09869 -0.978761,0.18088 -1.993878,0.1868 -2.941162,0.0172 -1.1101,-0.19881 -2.63609,-0.72806 -3.498057,-1.21319 -0.102724,-0.0578 -0.209474,-0.1202 -0.237222,-0.13864 l -0.05045,-0.0335 0.046,0.0678 c 0.05907,0.0871 0.06395,0.24252 0.01088,0.34654 -0.0809,0.15858 -0.389492,0.39222 -0.51804,0.39222 -0.06265,0 -0.072,-0.008 -0.163718,-0.13786 -0.153424,-0.21743 -0.362216,-0.45568 -0.631316,-0.72038 -0.136743,-0.13451 -0.261547,-0.27179 -0.277342,-0.30508 -0.05473,-0.11533 -0.02844,-0.19469 0.08432,-0.25457 0.02669,-0.0142 0.01574,-0.0196 -0.05735,-0.0282 -0.04969,-0.006 -0.138095,-0.03 -0.196461,-0.0536 l -0.10612,-0.0429 -0.192283,0.0332 c -0.965818,0.16651 -2.307907,0.32307 -3.438537,0.40111 -0.649462,0.0448 -2.420258,0.0449 -2.970545,1.2e-4 -1.13755,-0.0926 -2.023302,-0.24581 -2.832951,-0.49012 -0.124593,-0.0376 -0.226532,-0.0648 -0.226532,-0.0604 0,0.0191 0.396651,0.58857 0.579875,0.83245 2.225242,2.962 5.6326,4.92765 9.354552,5.3965 0.669753,0.0844 0.907781,0.0976 1.752088,0.0976 0.842834,0 1.088533,-0.0136 1.743194,-0.0968 0.956313,-0.12148 2.320623,-0.48919 3.353698,-0.90391 2.031295,-0.81545 3.730132,-2.02835 5.310948,-3.79181 0.41362,-0.4614 1.03907,-1.26375 1.43803,-1.84474 0.10221,-0.14884 0.18867,-0.26778 0.19213,-0.26432 0.004,0.003 -0.0427,0.11724 -0.10258,0.25284 -1.11798,2.53127 -3.494289,4.88252 -6.426214,6.35844 -1.83088,0.92166 -3.549141,1.39812 -5.642614,1.56468 -0.229147,0.0182 -1.563891,0.0363 -1.752087,0.0237 z M 76.692718,156.13016 c 2.234652,-2.03322 5.592576,-3.68415 9.686176,-4.76224 1.961776,-0.51665 3.86848,-0.80677 5.9952,-0.91221 l 0.439188,-0.0218 0.0093,-0.10783 c 0.04847,-0.56389 -0.0033,-6.32688 -0.05735,-6.38122 -0.0066,-0.007 -0.156142,-0.0285 -0.33224,-0.0486 -1.683166,-0.19173 -3.478836,-0.15049 -5.433211,0.12477 -0.956996,0.13479 -1.677841,0.30156 -2.526782,0.58459 -1.069167,0.35645 -2.037717,0.82924 -2.95191,1.44095 -1.315835,0.88047 -2.460266,2.0398 -3.336701,3.38015 -1.311903,2.00631 -2.076706,4.49489 -2.153843,7.00835 l -0.01119,0.36464 0.213117,-0.22234 c 0.117214,-0.12229 0.324339,-0.32354 0.460278,-0.44723 z m 13.596826,7.65679 c -0.212758,-0.016 -0.597104,-0.0648 -0.763286,-0.0968 -0.371431,-0.0715 -0.532452,-0.13862 -1.04312,-0.4345 -0.512916,-0.29719 -1.043796,-0.54373 -1.470977,-0.68313 -0.06604,-0.0215 -0.120067,-0.0434 -0.120067,-0.0486 0,-0.005 0.206895,-0.3187 0.459767,-0.69671 2.487924,-3.7192 4.043827,-6.52939 4.290347,-7.74902 0.01915,-0.0948 0.0234,-0.10182 0.03788,-0.063 0.0345,0.0926 0.121678,0.57336 0.151724,0.83673 0.02559,0.22429 0.0314,0.42499 0.03115,1.07616 -2.96e-4,0.77536 -0.0079,0.94976 -0.07142,1.64536 -0.149424,1.63541 -0.530613,3.82494 -1.041289,5.98111 l -0.05793,0.24458 -0.161366,-0.003 c -0.08875,-0.002 -0.197386,-0.006 -0.24141,-0.009 z m 65.226226,-1.13062 c -0.16119,-0.22206 -0.47952,-0.87476 -0.49272,-1.01027 l -0.008,-0.0809 0.21092,-0.0588 c 0.3804,-0.10599 0.48028,-0.15242 0.61279,-0.28486 0.13818,-0.13811 0.18355,-0.24514 0.18162,-0.42849 -0.002,-0.20345 -0.0688,-0.3284 -0.40425,-0.75739 -0.34829,-0.44544 -0.44084,-0.68088 -0.44343,-1.1281 -0.002,-0.29083 0.0204,-0.40158 0.12265,-0.61562 0.17318,-0.36244 0.5586,-0.67783 1.03982,-0.85091 0.18124,-0.0652 0.40076,-0.1163 0.50012,-0.11645 l 0.0821,-1.3e-4 0.0498,0.13786 c 0.0544,0.15061 0.29468,0.72067 0.3484,0.82642 0.0401,0.0789 0.0433,0.14878 0.008,0.16252 -0.0143,0.005 -0.0723,0.002 -0.12896,-0.007 -0.1983,-0.0325 -0.42234,0.0396 -0.5698,0.18337 -0.0999,0.0974 -0.13534,0.19287 -0.12599,0.33969 0.0105,0.16427 0.10354,0.33745 0.41716,0.77615 0.39334,0.55022 0.46058,0.7206 0.45979,1.16509 -3.9e-4,0.22178 -0.007,0.2902 -0.0402,0.40535 -0.0613,0.214 -0.11826,0.34039 -0.22725,0.50419 -0.27798,0.41778 -0.74028,0.73432 -1.27076,0.87012 -0.23694,0.0607 -0.25554,0.0588 -0.32146,-0.032 z m -9.68411,0.0112 c -0.53542,-0.0811 -0.88695,-0.25696 -1.25438,-0.6274 -0.39137,-0.3946 -0.63314,-0.86907 -0.73964,-1.45158 -0.0501,-0.27409 -0.0465,-0.90504 0.007,-1.18608 0.0542,-0.28623 0.14408,-0.54945 0.27116,-0.79454 0.31962,-0.61644 0.82696,-1.0429 1.43739,-1.20828 0.16107,-0.0436 0.19687,-0.0466 0.56333,-0.0466 0.37246,-5e-5 0.3999,0.002 0.5692,0.049 0.88066,0.24297 1.53231,1.02995 1.71066,2.0659 0.0379,0.22004 0.0429,0.83504 0.009,1.04947 -0.10062,0.62788 -0.34966,1.1379 -0.75263,1.54136 -0.29104,0.29141 -0.64362,0.48376 -1.05547,0.57582 -0.12184,0.0272 -0.65189,0.0501 -0.76487,0.0329 z m 0.51554,-1.37975 c 0.34003,-0.0864 0.65942,-0.43536 0.79464,-0.86821 0.0369,-0.11822 0.0416,-0.16784 0.0413,-0.4358 -3.6e-4,-0.29532 -0.002,-0.30634 -0.0589,-0.47137 -0.13939,-0.40267 -0.41293,-0.69118 -0.74889,-0.78986 -0.0556,-0.0163 -0.16183,-0.0284 -0.25025,-0.0284 -0.26201,0 -0.44195,0.0732 -0.64074,0.26076 -0.21833,0.20596 -0.37393,0.48665 -0.42738,0.77093 -0.0293,0.15574 -0.0253,0.4783 0.008,0.63289 0.14516,0.67851 0.6965,1.07792 1.28244,0.92904 z m -32.85357,1.29868 c -0.0489,-0.009 -0.71729,-0.0205 -1.48528,-0.0258 -1.21669,-0.008 -1.40183,-0.013 -1.43908,-0.0369 l -0.0428,-0.0274 0.0122,-0.41136 c 0.007,-0.22625 0.0244,-0.65951 0.0394,-0.96279 0.0435,-0.88029 0.0348,-1.81981 -0.0297,-3.21014 -0.0222,-0.47818 -0.0326,-0.4539 0.18811,-0.43829 0.31729,0.0224 1.62063,0.0307 2.18327,0.0138 0.63503,-0.019 0.70578,-0.0138 0.7506,0.0557 0.0329,0.051 0.0543,0.21568 0.0925,0.71092 0.0273,0.3534 0.028,0.40814 0.005,0.42989 -0.022,0.0213 -0.0694,0.0214 -0.32815,6.5e-4 -0.76517,-0.0614 -1.37954,-0.0767 -1.47551,-0.0366 -0.0932,0.0389 -0.10277,0.0734 -0.0959,0.34668 0.005,0.19885 0.0121,0.25256 0.0386,0.29305 0.0647,0.0986 0.0944,0.10195 0.74544,0.083 0.32543,-0.009 0.6827,-0.0271 0.79392,-0.0392 0.19078,-0.0208 0.20359,-0.0202 0.22641,0.0111 0.0133,0.0182 0.0203,0.0498 0.0155,0.0702 -0.0236,0.1015 -0.0795,0.76392 -0.0795,0.94264 0,0.16146 -0.006,0.20949 -0.028,0.23164 -0.0338,0.0338 -0.0209,0.0338 -0.28265,10e-4 -0.14943,-0.0186 -0.38559,-0.0265 -0.79324,-0.0265 -0.5508,0 -0.58206,0.002 -0.61153,0.0343 -0.0274,0.0302 -0.0303,0.0674 -0.025,0.31268 l 0.006,0.27836 0.065,0.0596 c 0.0976,0.0894 0.16208,0.1018 0.57533,0.1106 0.28883,0.006 0.46497,-4.6e-4 0.77671,-0.0291 0.4679,-0.043 0.55882,-0.0454 0.57851,-0.0149 0.0336,0.052 -0.008,0.53427 -0.0847,0.97123 -0.0395,0.22669 -0.0676,0.29553 -0.12695,0.31143 -0.0461,0.0123 -0.0445,0.0125 -0.16525,-0.01 z m 14.15011,2e-4 c -0.0538,-0.009 -0.7318,-0.0216 -1.50664,-0.0286 -1.12347,-0.0102 -1.41348,-0.0175 -1.43191,-0.0361 -0.0296,-0.0299 -0.0246,-0.40796 0.0167,-1.24855 0.0471,-0.95948 0.0368,-2.16217 -0.0297,-3.4686 -0.0146,-0.28628 -0.0128,-0.31193 0.0231,-0.3257 0.0119,-0.005 0.35455,-3e-5 0.76153,0.01 0.50768,0.0126 0.97016,0.0126 1.47322,-1e-5 0.46941,-0.0117 0.75545,-0.0122 0.79494,-0.001 0.0447,0.0123 0.0681,0.0326 0.085,0.0736 0.0268,0.0649 0.0774,0.55148 0.093,0.89414 0.009,0.19569 0.006,0.23439 -0.0157,0.24287 -0.0144,0.006 -0.15771,-7.8e-4 -0.31834,-0.014 -0.35992,-0.0297 -0.99555,-0.0613 -1.23661,-0.0613 -0.31444,-8e-5 -0.34552,0.0299 -0.34429,0.33259 0.001,0.25088 0.0343,0.35666 0.12617,0.40161 0.0604,0.0295 0.10443,0.0305 0.65815,0.014 0.32639,-0.01 0.6837,-0.0274 0.79402,-0.0394 0.27593,-0.03 0.26177,-0.0534 0.21725,0.35892 -0.0195,0.18072 -0.0407,0.45471 -0.0471,0.60887 -0.008,0.19599 -0.0186,0.28606 -0.0347,0.29946 -0.0166,0.0138 -0.0881,0.0112 -0.25439,-0.009 -0.16723,-0.0204 -0.39055,-0.0282 -0.80618,-0.0282 -0.50392,0 -0.58002,0.004 -0.61651,0.0292 -0.0412,0.0288 -0.0416,0.0322 -0.0343,0.30215 0.006,0.23878 0.0118,0.27914 0.0433,0.32215 0.045,0.0615 0.13238,0.10576 0.25492,0.129 0.15689,0.0297 0.74263,0.0207 1.1477,-0.0178 0.50542,-0.048 0.5385,-0.0474 0.56481,0.0104 0.0241,0.0529 1.3e-4,0.37357 -0.0571,0.76249 -0.0498,0.33842 -0.0701,0.41952 -0.11705,0.46646 -0.0443,0.0443 -0.0523,0.0451 -0.20327,0.0208 z m -7.46706,-0.0317 c -0.32573,-0.008 -0.39943,-0.0145 -0.41311,-0.0364 -0.0102,-0.0164 -0.0124,-0.63676 -0.006,-1.60979 0.0111,-1.58695 0.001,-2.12864 -0.055,-2.99722 -0.0123,-0.19078 -0.0191,-0.35608 -0.0151,-0.36735 0.004,-0.0113 0.0248,-0.0254 0.0461,-0.0315 0.19804,-0.056 2.1285,-0.0575 2.44013,-0.002 0.54929,0.0981 0.95609,0.38993 1.20959,0.86765 0.17611,0.33187 0.23099,0.61972 0.2173,1.13976 -0.008,0.29835 -0.017,0.39046 -0.054,0.54722 -0.19193,0.81151 -0.70021,1.28057 -1.43768,1.32676 -0.0943,0.006 -0.33549,7.3e-4 -0.53588,-0.0115 -0.42299,-0.0258 -0.46969,-0.0203 -0.50062,0.0589 -0.0229,0.0588 -0.0204,0.13144 0.0263,0.75947 0.0128,0.17166 0.018,0.32575 0.0116,0.34242 -0.0128,0.0333 -0.0786,0.0343 -0.93393,0.0133 z m 1.68864,-2.34231 c 0.22744,-0.0675 0.37361,-0.23956 0.42484,-0.49996 0.032,-0.16243 0.0139,-0.51963 -0.0328,-0.64908 -0.0781,-0.2164 -0.20904,-0.34424 -0.41777,-0.40775 -0.10728,-0.0326 -0.15551,-0.036 -0.42691,-0.0296 -0.31851,0.008 -0.37392,0.0196 -0.39517,0.0866 -0.0148,0.0468 -0.0155,1.40809 -6.9e-4,1.45471 0.0142,0.0447 0.0659,0.0583 0.28556,0.075 0.22423,0.017 0.44441,0.005 0.5629,-0.0299 z m 7.65502,2.34329 c -0.19567,-0.006 -0.36701,-0.0179 -0.38076,-0.0268 -0.0275,-0.0177 -0.0234,-0.44565 0.0173,-1.79058 0.0151,-0.49931 0.0151,-0.84336 -1e-5,-1.36076 -0.0111,-0.38087 -0.0252,-0.94864 -0.0312,-1.2617 -0.01,-0.51481 -0.008,-0.57154 0.0182,-0.59348 0.053,-0.044 0.45289,-0.0598 1.24803,-0.0493 0.91739,0.0121 1.12989,0.0351 1.52974,0.16518 0.61264,0.19938 1.03374,0.65834 1.2787,1.39368 0.10286,0.30875 0.13681,0.50536 0.14796,0.85694 0.0181,0.57015 -0.0705,1.00388 -0.29752,1.45621 -0.34526,0.68802 -0.813,1.05641 -1.50268,1.18351 -0.13014,0.024 -0.30155,0.0303 -0.91607,0.0336 -0.41579,0.002 -0.91607,-6.6e-4 -1.11173,-0.007 z m 1.77465,-1.18205 c 0.27314,-0.093 0.46726,-0.25784 0.62112,-0.52736 0.2013,-0.35261 0.25371,-0.96676 0.1184,-1.38744 -0.0696,-0.21642 -0.15443,-0.35354 -0.3259,-0.52689 -0.12781,-0.12922 -0.18762,-0.17513 -0.29388,-0.2256 -0.19041,-0.0904 -0.38915,-0.12663 -0.62225,-0.11333 -0.20842,0.0119 -0.29765,0.0323 -0.3591,0.082 l -0.0414,0.0335 -0.006,1.18002 c -0.003,0.649 -4.2e-4,1.23832 0.006,1.3096 0.0102,0.11273 0.0176,0.13345 0.0572,0.15937 0.0814,0.0533 0.23248,0.0752 0.47612,0.069 0.19328,-0.005 0.25392,-0.0136 0.36942,-0.053 z m 3.38378,1.18729 c -0.14289,-0.0202 -0.16984,-0.0288 -0.18624,-0.0594 -0.0119,-0.0222 -0.009,-0.22287 0.008,-0.60847 0.0525,-1.18884 0.0679,-1.86033 0.0565,-2.46091 -0.0369,-1.931 -0.0369,-1.94098 -0.004,-1.95341 0.0166,-0.006 0.1805,-0.004 0.36429,0.005 0.1838,0.009 0.34957,0.0135 0.36839,0.01 0.0188,-0.004 0.1517,-0.0114 0.2953,-0.0169 0.22566,-0.009 0.265,-0.006 0.28988,0.0188 0.0321,0.0321 0.0314,0.0757 -0.0185,1.26304 -0.0295,0.70168 -0.032,1.63294 -0.008,2.84162 0.009,0.46839 0.0126,0.86982 0.007,0.89206 -0.007,0.0298 -0.0273,0.0434 -0.0754,0.0515 -0.0779,0.0132 -1.02048,0.0281 -1.09691,0.0173 z m 3.39542,-0.004 c -0.14898,-0.0198 -0.14916,-0.0202 -0.14916,-0.33589 0,-0.15154 0.0129,-0.64083 0.0287,-1.08732 0.0265,-0.75062 0.027,-2.47855 6.3e-4,-2.5049 -0.005,-0.005 -0.15129,0.004 -0.32577,0.0186 -0.17448,0.0149 -0.41329,0.0296 -0.53069,0.0326 l -0.21346,0.005 -0.005,-0.0464 c -0.003,-0.0255 0.0184,-0.17362 0.0475,-0.32907 0.0291,-0.15544 0.0579,-0.36979 0.0639,-0.47634 0.0111,-0.19469 0.0376,-0.35985 0.0601,-0.37374 0.007,-0.004 0.10005,0.003 0.20757,0.0167 0.59103,0.0731 1.56089,0.0764 2.32111,0.008 0.22991,-0.0207 0.47804,-0.0391 0.55142,-0.0409 l 0.13341,-0.003 v 0.37354 c 0,0.20545 0.007,0.4743 0.0159,0.59744 0.0135,0.18994 0.012,0.2254 -0.01,0.23384 -0.0143,0.005 -0.1455,0.003 -0.29165,-0.005 -0.14615,-0.008 -0.37051,-0.0203 -0.49856,-0.0272 l -0.23284,-0.0125 -0.0117,0.69163 c -0.006,0.38039 -0.004,0.93176 0.005,1.22525 0.0487,1.54908 0.058,1.93073 0.0479,1.97081 -0.008,0.0317 -0.0272,0.0473 -0.069,0.0559 -0.0814,0.0168 -1.03476,0.0272 -1.14506,0.0126 z m 3.3508,-10e-4 c -0.16352,-0.0228 -0.16281,-0.0212 -0.14957,-0.32118 0.0186,-0.42188 0.062,-1.61619 0.0739,-2.03686 0.006,-0.22118 -9.8e-4,-0.8515 -0.0167,-1.44969 -0.0351,-1.33565 -0.0355,-1.23984 0.006,-1.26183 0.0219,-0.0117 0.14049,-0.0129 0.34242,-0.003 0.16988,0.008 0.44731,0.008 0.6165,-6.8e-4 0.20873,-0.0104 0.3188,-0.009 0.34241,0.003 0.032,0.0171 0.0348,0.0387 0.0348,0.27147 -3e-5,0.13907 -0.0136,0.529 -0.0302,0.86652 -0.0236,0.48074 -0.0286,0.84487 -0.0228,1.68094 0.004,0.58699 0.008,1.32708 0.008,1.64463 l 6.2e-4,0.57736 -0.0623,0.0151 c -0.0841,0.0205 -1.01464,0.032 -1.14262,0.0142 z m -26.43518,-0.0199 c -0.0478,-0.008 -0.0948,-0.0225 -0.10454,-0.0322 -0.0248,-0.0248 -0.0254,-0.82931 -7.6e-4,-0.91209 0.0106,-0.0356 0.18895,-0.30253 0.3963,-0.59314 0.38866,-0.54471 0.53714,-0.765 0.60413,-0.8963 l 0.0387,-0.0758 -0.0395,-0.0816 c -0.0549,-0.11338 -0.27265,-0.43378 -0.6501,-0.95649 -0.17661,-0.24458 -0.33128,-0.46405 -0.3437,-0.4877 -0.0165,-0.0314 -0.0232,-0.17519 -0.0248,-0.53364 l -0.002,-0.49061 0.48018,0.001 0.48019,0.001 0.12128,0.17644 c 0.0667,0.097 0.25084,0.38282 0.40919,0.63505 0.15836,0.25224 0.30461,0.47966 0.32501,0.50537 l 0.0371,0.0468 0.0811,-0.11404 c 0.0446,-0.0627 0.16688,-0.25412 0.27171,-0.42532 0.28308,-0.46232 0.4386,-0.70576 0.49483,-0.77457 l 0.0502,-0.0615 h 0.43984 c 0.31838,0 0.44573,0.006 0.46118,0.0213 0.0155,0.0155 0.0214,0.14803 0.0214,0.48471 v 0.46337 l -0.0807,0.1423 c -0.0444,0.0783 -0.26108,0.39445 -0.48158,0.70262 -0.2205,0.30817 -0.4208,0.59383 -0.4451,0.63479 -0.0431,0.0726 -0.0434,0.076 -0.0138,0.13341 0.0462,0.0895 0.27975,0.43456 0.6479,0.9572 0.18262,0.25926 0.3433,0.49139 0.35708,0.51585 0.0197,0.035 0.025,0.14148 0.025,0.50184 0,0.4151 -0.003,0.46031 -0.0317,0.48916 -0.0277,0.0277 -0.0732,0.0325 -0.35575,0.0377 -0.17822,0.003 -0.38141,6e-4 -0.45154,-0.006 l -0.1275,-0.0117 -0.10374,-0.14609 c -0.0571,-0.0804 -0.24249,-0.36618 -0.41208,-0.63517 -0.16958,-0.269 -0.3229,-0.50839 -0.34069,-0.53198 l -0.0324,-0.0429 -0.13223,0.20363 c -0.0727,0.112 -0.21491,0.33971 -0.31595,0.50603 -0.22066,0.36319 -0.34483,0.55227 -0.40591,0.61812 l -0.0454,0.0489 -0.35688,-0.002 c -0.19628,-0.001 -0.39598,-0.009 -0.44379,-0.0167 z m 34.6173,0.007 c -0.0171,-0.005 -0.0365,-0.0299 -0.0431,-0.0561 -0.0118,-0.0466 0.0115,-0.84272 0.05,-1.71077 0.0198,-0.44723 0.0108,-1.38859 -0.0201,-2.09894 -0.009,-0.21034 -0.0169,-0.55638 -0.0173,-0.76898 l -6.3e-4,-0.38655 0.04,-0.008 c 0.022,-0.004 0.14165,-0.0127 0.26586,-0.0183 0.12421,-0.006 0.29231,-0.0223 0.37354,-0.037 0.32275,-0.0585 0.42445,-0.0697 0.45549,-0.0503 0.0166,0.0104 0.16625,0.22428 0.33257,0.47528 0.16631,0.251 0.56161,0.84794 0.87842,1.32652 0.57764,0.87259 0.69228,1.02562 0.73579,0.98221 0.0317,-0.0316 0.0378,-0.40987 0.0151,-0.93185 -0.048,-1.10358 -0.062,-1.66523 -0.0427,-1.70778 l 0.0195,-0.0427 0.61669,-0.0233 c 0.47596,-0.018 0.62149,-0.0185 0.63773,-0.002 0.0243,0.0244 0.0204,0.60711 -0.008,1.21985 -0.01,0.20545 -0.0218,1.14293 -0.0272,2.08329 -0.005,0.94036 -0.0152,1.71858 -0.0219,1.72937 -0.0184,0.0298 -0.41253,0.045 -0.77549,0.0299 l -0.32018,-0.0133 -0.0586,-0.0647 c -0.0322,-0.0356 -0.35104,-0.49642 -0.70844,-1.02405 -1.01758,-1.50226 -1.10012,-1.61892 -1.13166,-1.59943 -0.0185,0.0115 -0.0162,0.35245 0.0144,2.06959 0.007,0.38641 0.004,0.58694 -0.008,0.60478 -0.0157,0.0227 -0.10737,0.0271 -0.61943,0.0294 -0.33055,0.001 -0.615,-0.001 -0.63211,-0.006 z m -50.796971,-3.6813 c 1.59e-4,-0.0183 0.008,-0.12535 0.01741,-0.23786 0.0617,-0.73729 0.05778,-1.82794 -0.0097,-2.71262 -0.227308,-2.97803 -1.106593,-6.3053 -2.740043,-10.36849 -0.141204,-0.35125 -0.254022,-0.64134 -0.250707,-0.64466 0.0075,-0.008 0.567187,0.36974 0.794916,0.53582 1.299325,0.94762 2.45002,2.07173 3.463795,3.38377 1.33707,1.73044 2.42263,3.83478 3.08327,5.9769 0.12241,0.39692 0.29611,1.067 0.3123,1.20476 0.0106,0.0905 0.01,0.0924 -0.0949,0.22393 -0.20719,0.26027 -0.49581,0.49993 -0.8809,0.73149 -0.29133,0.17519 -0.63164,0.3418 -1.33882,0.65549 -0.64824,0.28754 -1.179467,0.54547 -1.503067,0.72977 -0.17927,0.10211 -0.661315,0.41382 -0.820533,0.53059 -0.02936,0.0215 -0.03324,0.0205 -0.03299,-0.009 z m 18.299281,-3.41725 c -0.14648,-0.1545 -0.53834,-0.95538 -0.5262,-1.07546 0.005,-0.0535 0.008,-0.0548 0.2504,-0.12305 0.43042,-0.12123 0.58441,-0.21868 0.69248,-0.4382 0.0504,-0.10237 0.0582,-0.13658 0.0582,-0.25435 0,-0.12427 -0.006,-0.14904 -0.0747,-0.28546 -0.0459,-0.0918 -0.16776,-0.26931 -0.31622,-0.46066 -0.33165,-0.42747 -0.41859,-0.61866 -0.45796,-1.00718 -0.0324,-0.31995 0.0288,-0.6091 0.18491,-0.87375 0.12632,-0.21409 0.44239,-0.48443 0.74335,-0.63581 0.13565,-0.0682 0.48226,-0.17913 0.64466,-0.20626 0.11195,-0.0187 0.1416,-0.0186 0.16454,4.1e-4 0.0154,0.0128 0.028,0.0307 0.028,0.0399 0,0.0268 0.18368,0.4825 0.30111,0.74708 0.0594,0.13385 0.10801,0.26285 0.10801,0.28666 v 0.0433 l -0.20901,-0.002 c -0.19284,-0.002 -0.21703,0.002 -0.31281,0.0466 -0.15166,0.071 -0.23483,0.14447 -0.28893,0.25505 -0.0416,0.085 -0.0466,0.1132 -0.0391,0.21798 0.0123,0.17229 0.0756,0.29119 0.39054,0.73413 0.30607,0.43043 0.38878,0.58196 0.45297,0.82991 0.0405,0.15666 0.044,0.1973 0.0363,0.42237 -0.01,0.28364 -0.0539,0.46747 -0.16577,0.68995 -0.0891,0.17718 -0.15199,0.26465 -0.30736,0.42728 -0.28941,0.30293 -0.66654,0.52042 -1.08104,0.62345 -0.20981,0.0521 -0.22524,0.052 -0.27629,-0.002 z m 16.11965,-0.0225 c -0.49856,-0.0485 -0.93223,-0.25423 -1.29074,-0.61249 -0.40215,-0.40187 -0.6475,-0.89457 -0.75787,-1.52188 -0.0351,-0.19948 -0.0305,-0.86983 0.007,-1.08527 0.10593,-0.60118 0.3567,-1.09514 0.75877,-1.49459 0.31832,-0.31624 0.669,-0.50161 1.11337,-0.58854 0.161,-0.0315 0.63438,-0.0314 0.80934,2.3e-4 0.70296,0.12693 1.30609,0.61824 1.64419,1.33937 0.31879,0.67995 0.36487,1.58917 0.11798,2.32762 -0.31503,0.9422 -1.04568,1.55589 -1.94751,1.63573 -0.21551,0.0191 -0.25693,0.0191 -0.45502,-1.8e-4 z m 0.44998,-1.3782 c 0.30879,-0.0804 0.59853,-0.34815 0.75175,-0.6946 0.15245,-0.34473 0.15455,-0.83446 0.005,-1.19449 -0.28078,-0.67648 -0.99272,-0.91959 -1.52223,-0.5198 -0.2125,0.16043 -0.42921,0.51037 -0.49476,0.79891 -0.0444,0.19524 -0.0408,0.51609 0.008,0.7204 0.10687,0.44708 0.42053,0.79706 0.79574,0.88789 0.13859,0.0335 0.33123,0.0343 0.45629,0.002 z m 6.17594,1.30495 c -0.28371,-0.008 -0.8816,-0.0214 -1.32865,-0.0298 -0.64544,-0.0122 -0.81886,-0.0204 -0.84222,-0.0397 -0.0271,-0.0224 -0.0289,-0.1507 -0.0232,-1.59055 0.003,-0.86137 -0.001,-1.98718 -0.01,-2.5018 l -0.0161,-0.93566 0.0428,-0.0106 c 0.0236,-0.006 0.1749,-0.004 0.33632,0.005 0.18084,0.009 0.41871,0.008 0.61969,-0.003 0.21564,-0.012 0.33216,-0.0122 0.34382,-5e-4 0.0117,0.0117 0.0111,0.14345 -0.002,0.38888 -0.0107,0.20418 -0.0313,0.6674 -0.0459,1.02938 -0.0308,0.76685 -0.0362,2.41217 -0.008,2.46477 0.0165,0.0309 0.0388,0.0344 0.2179,0.0342 0.10972,-1e-4 0.3956,-0.0117 0.63529,-0.0258 0.23968,-0.0141 0.58161,-0.0312 0.75984,-0.0381 l 0.32404,-0.0124 0.0164,0.0431 c 0.0366,0.0964 -0.0362,1.09597 -0.0868,1.19041 -0.0308,0.0576 -0.0362,0.0577 -0.93344,0.0325 z m 17.12066,-0.0161 c -0.0832,-0.007 -0.74481,-0.0192 -1.47033,-0.0265 -0.72553,-0.007 -1.32986,-0.0199 -1.34297,-0.028 -0.0306,-0.0189 -0.0257,-0.39743 0.0157,-1.22559 0.0478,-0.95639 0.0366,-2.2941 -0.0296,-3.51307 -0.008,-0.15032 -0.007,-0.26217 0.003,-0.28219 0.0162,-0.0318 0.0413,-0.0325 0.63324,-0.0178 0.33903,0.008 0.87656,0.0114 1.19451,0.006 1.06675,-0.0164 1.23654,-0.0133 1.27683,0.0231 0.0195,0.0176 0.0406,0.0576 0.0469,0.0889 0.0219,0.10834 0.0815,0.80231 0.0815,0.94958 v 0.1479 h -0.0539 c -0.0297,0 -0.21576,-0.0131 -0.41356,-0.029 -0.20394,-0.0165 -0.57692,-0.0299 -0.86152,-0.0311 -0.63094,-0.003 -0.58325,-0.0291 -0.58298,0.32308 2e-4,0.26693 0.0178,0.32978 0.10876,0.38941 0.0688,0.0451 0.64419,0.0363 1.52051,-0.0231 0.11513,-0.008 0.17473,-0.005 0.18274,0.008 0.007,0.0106 -0.004,0.17378 -0.0243,0.36266 -0.0199,0.18889 -0.0421,0.4675 -0.0493,0.61914 l -0.0131,0.27571 -0.11562,-7.8e-4 c -0.0636,-4.2e-4 -0.22768,-0.0104 -0.36465,-0.0222 -0.13696,-0.0118 -0.45406,-0.0214 -0.70466,-0.0214 -0.4397,-7e-5 -0.45734,0.001 -0.50437,0.0383 l -0.0487,0.0383 0.007,0.25961 c 0.008,0.30354 0.0251,0.35171 0.14293,0.40783 0.12658,0.0603 0.34056,0.0807 0.7161,0.0681 0.18607,-0.006 0.45037,-0.0232 0.58734,-0.0377 0.13696,-0.0145 0.31891,-0.0266 0.40433,-0.0269 0.15474,-5.2e-4 0.15535,-3.5e-4 0.16764,0.0484 0.0235,0.0933 -0.0659,0.87205 -0.12709,1.10626 -0.0394,0.15097 -0.0493,0.15418 -0.38262,0.12497 z m -46.28931,-0.0181 c -0.15055,-0.0211 -0.18994,-0.0412 -0.18994,-0.0973 0,-0.0787 0.19076,-0.67767 0.95166,-2.98798 0.2481,-0.75331 0.50044,-1.52339 0.56074,-1.71129 0.0603,-0.18789 0.12115,-0.35118 0.13522,-0.36285 0.0198,-0.0164 0.0845,-0.0163 0.28736,4.3e-4 0.14399,0.0119 0.40188,0.0191 0.57309,0.016 l 0.31128,-0.006 0.0487,0.0978 c 0.14012,0.28122 1.66314,4.68555 1.69597,4.90447 0.009,0.0591 0.005,0.086 -0.015,0.10606 -0.0524,0.0524 -0.679,0.0761 -1.09719,0.0416 -0.26649,-0.022 -0.2676,-0.0231 -0.33713,-0.32945 -0.0289,-0.12718 -0.0674,-0.27126 -0.0855,-0.32018 l -0.033,-0.0889 -0.15957,-0.0143 c -0.24649,-0.0221 -1.23605,-0.007 -1.28446,0.0201 -0.059,0.0326 -0.089,0.10373 -0.15639,0.37131 -0.0659,0.2616 -0.0924,0.31784 -0.16257,0.34451 -0.0631,0.024 -0.89445,0.0365 -1.04326,0.0157 z m 2.39547,-2.00681 c 0.0458,-0.0381 0.0363,-0.14603 -0.0406,-0.45717 -0.11804,-0.47792 -0.26155,-0.92846 -0.28741,-0.90227 -0.0301,0.0305 -0.32336,0.96717 -0.37876,1.2097 -0.0291,0.12747 -0.0201,0.14376 0.0923,0.16695 0.11448,0.0236 0.58109,0.0105 0.61449,-0.0172 z m 8.76704,2.00828 c -0.0908,-0.008 -0.17781,-0.0254 -0.19338,-0.0384 -0.0252,-0.0209 -0.0273,-0.0875 -0.0191,-0.60206 0.005,-0.31822 0.0192,-0.91476 0.0315,-1.32566 0.0156,-0.52299 0.0175,-0.93115 0.006,-1.36076 l -0.016,-0.61367 -0.0534,0.004 c -0.0293,0.002 -0.20429,0.0162 -0.38876,0.0311 -0.18446,0.0149 -0.40258,0.0271 -0.48471,0.0271 h -0.14933 l 7e-5,-0.0667 c 4e-5,-0.0367 0.0199,-0.16786 0.0441,-0.2915 0.0242,-0.12364 0.0524,-0.33469 0.0626,-0.46901 0.0178,-0.23393 0.039,-0.37394 0.06,-0.3949 0.005,-0.005 0.12816,0.003 0.27284,0.0196 0.14468,0.0161 0.49887,0.0375 0.78709,0.0474 0.5587,0.0192 0.81839,0.0102 1.57372,-0.0548 0.48238,-0.0415 0.57902,-0.0437 0.58002,-0.0129 3.9e-4,0.0122 0.003,0.21034 0.006,0.44025 0.003,0.2299 0.012,0.48787 0.0196,0.57326 0.0125,0.14114 0.0108,0.15637 -0.0187,0.1677 -0.0179,0.007 -0.24909,-8e-5 -0.51388,-0.0154 -0.29245,-0.0169 -0.48826,-0.0215 -0.49884,-0.0115 -0.0254,0.0238 -0.0225,1.99499 0.004,2.63006 0.0264,0.63781 0.0351,1.2563 0.0178,1.27359 -0.0271,0.0271 -0.19731,0.0419 -0.57337,0.0498 -0.21523,0.005 -0.46561,0.002 -0.55641,-0.007 z m 20.65967,-0.001 c -0.14741,-0.0206 -0.18994,-0.0415 -0.18993,-0.0931 0,-0.078 0.2099,-0.73939 0.8536,-2.68976 0.22602,-0.68483 0.49106,-1.49328 0.58898,-1.79656 0.0979,-0.30328 0.1892,-0.56274 0.20285,-0.57657 0.0212,-0.0214 0.063,-0.0219 0.28354,-0.003 0.17162,0.0148 0.36292,0.018 0.56819,0.01 l 0.30947,-0.0128 0.0304,0.0464 c 0.041,0.0626 0.13636,0.31136 0.35894,0.93655 0.61093,1.71602 1.37473,3.97473 1.37521,4.06676 1.5e-4,0.0306 -0.0116,0.0655 -0.026,0.0775 -0.0571,0.0474 -0.70052,0.0687 -1.09323,0.0362 -0.26638,-0.022 -0.26745,-0.0231 -0.33677,-0.32945 -0.0288,-0.12718 -0.0673,-0.27126 -0.0856,-0.32018 l -0.0333,-0.0889 -0.15957,-0.0143 c -0.24648,-0.0221 -1.23604,-0.007 -1.28445,0.0201 -0.058,0.032 -0.0825,0.0903 -0.15386,0.3663 -0.0694,0.26828 -0.0952,0.32294 -0.1651,0.34952 -0.0631,0.024 -0.89446,0.0365 -1.04327,0.0157 z m 2.39548,-2.00681 c 0.046,-0.0383 0.0362,-0.14615 -0.0425,-0.46606 -0.11785,-0.47895 -0.25857,-0.92128 -0.28435,-0.8938 -0.0191,0.0203 -0.23536,0.68782 -0.32055,0.98925 -0.0738,0.26128 -0.0844,0.33974 -0.0487,0.36182 0.0753,0.0465 0.64206,0.0537 0.69608,0.009 z m 4.02271,2.00622 c -0.12718,-0.008 -0.26325,-0.0247 -0.30239,-0.0376 l -0.0712,-0.0235 0.001,-0.38226 c 5.6e-4,-0.21024 0.0126,-0.60238 0.0267,-0.87142 0.016,-0.30443 0.0251,-0.81832 0.0241,-1.36076 -0.001,-0.77106 -0.0117,-1.17466 -0.0546,-2.11916 l -0.0114,-0.25146 0.0426,-0.0242 c 0.0341,-0.0194 0.22741,-0.0254 0.96758,-0.03 1.20658,-0.007 1.53631,0.0166 1.92028,0.13993 0.40911,0.13145 0.66335,0.39683 0.77463,0.80855 0.0546,0.2019 0.0685,0.57923 0.0273,0.73818 -0.0404,0.15571 -0.16186,0.3801 -0.30499,0.5634 -0.0648,0.0831 -0.11097,0.15697 -0.10247,0.16426 0.008,0.007 0.0576,0.0435 0.10921,0.0804 0.16716,0.11969 0.30338,0.34751 0.38134,0.63776 0.0516,0.19218 0.0552,0.56938 0.008,0.79517 -0.1464,0.69365 -0.59596,1.07781 -1.37205,1.17243 -0.18299,0.0223 -1.69875,0.0225 -2.06338,3.1e-4 z m 1.76781,-1.1378 c 0.26753,-0.0434 0.3995,-0.18947 0.40096,-0.44378 9.3e-4,-0.16208 -0.0273,-0.24922 -0.11077,-0.34158 -0.13245,-0.14661 -0.27795,-0.17994 -0.7477,-0.17129 -0.23346,0.004 -0.32769,0.0123 -0.34446,0.0291 -0.0176,0.0177 -0.0231,0.12197 -0.0231,0.43962 0,0.46666 -5.3e-4,0.46463 0.12775,0.48945 0.10434,0.0202 0.56991,0.0192 0.69731,-0.001 z m -0.0558,-2.07323 c 0.14054,-0.0366 0.24525,-0.10195 0.30288,-0.18903 0.0429,-0.0648 0.0485,-0.0902 0.0485,-0.21831 0,-0.13021 -0.005,-0.15373 -0.0534,-0.23065 -0.0694,-0.11146 -0.18789,-0.17889 -0.3615,-0.2058 -0.1604,-0.0249 -0.66915,-0.0164 -0.6971,0.0116 -0.0108,0.0109 -0.028,0.12751 -0.0381,0.25918 -0.0211,0.27457 -0.001,0.5162 0.0462,0.56374 0.058,0.0581 0.54199,0.064 0.75244,0.009 z M 125.7885,155.299 c -0.0372,-0.007 -0.0772,-0.0227 -0.0889,-0.0345 -0.0262,-0.0263 -0.0217,-0.42251 0.015,-1.30019 0.0413,-0.98874 0.0328,-2.4345 -0.0201,-3.42659 -0.0122,-0.22769 -0.0115,-0.23422 0.026,-0.25431 0.0579,-0.031 0.50807,-0.052 1.39849,-0.0654 0.57256,-0.009 0.84428,-0.006 0.95442,0.009 0.74142,0.10005 1.24099,0.51251 1.37739,1.13722 0.0376,0.17218 0.0508,0.5331 0.0273,0.7468 -0.0523,0.47591 -0.17262,0.71701 -0.51818,1.03795 -0.0978,0.0908 -0.17783,0.1758 -0.17783,0.1888 0,0.013 0.11712,0.2894 0.26028,0.61424 0.33679,0.76423 0.52552,1.23426 0.5188,1.29201 -0.005,0.0415 -0.0151,0.047 -0.11204,0.0599 -0.0587,0.008 -0.34722,0.0118 -0.64115,0.009 -0.45603,-0.005 -0.54082,-0.01 -0.5781,-0.0341 -0.0335,-0.022 -0.0658,-0.0925 -0.13848,-0.30239 -0.12365,-0.35694 -0.46171,-1.24067 -0.49414,-1.29177 -0.0533,-0.0839 -0.14708,-0.1114 -0.38022,-0.1114 h -0.2146 l -0.0193,0.0489 c -0.0235,0.0596 -0.011,0.43503 0.0292,0.87321 0.0156,0.16965 0.0299,0.41779 0.0319,0.55142 l 0.004,0.24297 -0.0978,0.0116 c -0.13378,0.0158 -1.07774,0.0142 -1.16155,-0.002 z m 1.91065,-2.66885 c 0.24089,-0.045 0.4133,-0.1869 0.47191,-0.38851 0.0454,-0.15624 0.0272,-0.44186 -0.0374,-0.58523 -0.11787,-0.26178 -0.34263,-0.36622 -0.7923,-0.36818 -0.23946,-0.001 -0.3229,0.0189 -0.36025,0.086 -0.0144,0.0259 -0.0231,0.21843 -0.0279,0.61847 -0.007,0.56978 -0.006,0.58126 0.0292,0.60027 0.0868,0.0465 0.54079,0.07 0.71674,0.0372 z m -28.034067,-8.64888 -0.0231,-0.11978 -0.10477,-0.0216 c -0.0576,-0.0119 -0.104763,-0.027 -0.104763,-0.0335 0,-0.007 0.04686,-0.0211 0.104133,-0.0324 l 0.10413,-0.0205 0.0258,-0.11968 0.0258,-0.11968 0.0239,0.10672 c 0.0132,0.0587 0.0353,0.11607 0.0493,0.12748 0.0139,0.0114 0.0648,0.0262 0.11293,0.0328 0.10273,0.0141 0.1003,0.0361 -0.006,0.0537 -0.1029,0.0171 -0.13752,0.0381 -0.13913,0.0846 -7.5e-4,0.0217 -0.0113,0.0714 -0.0233,0.11055 l -0.022,0.0711 z m 1.128867,-0.51614 c -0.0271,-0.12963 -0.0564,-0.24448 -0.065,-0.25524 -0.009,-0.0108 -0.1274,-0.0425 -0.26395,-0.0705 -0.13655,-0.028 -0.24397,-0.0552 -0.23871,-0.0605 0.005,-0.005 0.12255,-0.0336 0.26065,-0.0629 l 0.2511,-0.0534 0.0528,-0.25348 c 0.029,-0.13941 0.0575,-0.25347 0.0633,-0.25347 0.006,0 0.0345,0.11394 0.0638,0.25321 l 0.0532,0.25321 0.21346,0.046 c 0.35744,0.0771 0.3532,0.0675 0.058,0.13147 -0.1442,0.0313 -0.2651,0.0603 -0.26867,0.0644 -0.004,0.004 -0.0294,0.11767 -0.0574,0.25219 -0.028,0.13452 -0.0559,0.24458 -0.0621,0.24458 -0.006,0 -0.0333,-0.10606 -0.0604,-0.23569 z m -1.732787,-0.88702 c -0.06148,-0.28746 -0.117161,-0.52749 -0.123727,-0.53341 -0.0066,-0.006 -0.232059,-0.0571 -0.501098,-0.11376 -0.269039,-0.0566 -0.495319,-0.1084 -0.502844,-0.11499 -0.0075,-0.007 0.164571,-0.05 0.382436,-0.0965 0.217864,-0.0465 0.448872,-0.0963 0.513351,-0.11073 l 0.117235,-0.0262 0.102961,-0.48232 c 0.05663,-0.26528 0.108204,-0.50193 0.114613,-0.52589 0.0079,-0.0297 0.0471,0.12277 0.122742,0.4777 0.0611,0.28669 0.114047,0.52422 0.117661,0.52783 0.0036,0.004 0.23545,0.0557 0.5152,0.11581 0.279757,0.0601 0.502687,0.11442 0.495407,0.12076 -0.007,0.006 -0.23335,0.0579 -0.502387,0.11453 -0.26904,0.0567 -0.494952,0.10804 -0.502033,0.11419 -0.0071,0.006 -0.06153,0.23911 -0.120999,0.5177 -0.05947,0.27859 -0.11006,0.51359 -0.112426,0.52223 -0.0024,0.009 -0.05461,-0.21949 -0.116092,-0.50695 z m -15.524011,-0.39814 c 0.0059,-0.0391 0.06701,-0.56743 0.135752,-1.17399 0.06874,-0.60656 0.130796,-1.12933 0.13791,-1.16172 0.0126,-0.0574 0.03104,-0.0337 0.727666,0.93359 0.393103,0.54587 0.712548,0.99467 0.709879,0.99734 -0.0027,0.003 -0.219081,-0.0355 -0.480914,-0.0849 -0.39543,-0.0745 -0.480985,-0.0858 -0.505141,-0.0668 -0.051,0.0401 -0.632186,0.53334 -0.685074,0.58142 l -0.05085,0.0462 z"
     id="path1"
     transform="translate(-65.446323,-138.6457)"
     inkscape:label="Logo" /><text
     xml:space="preserve"
     transform="matrix(0.87972082,0,0,0.88050494,-378.05445,-671.56378)"
     id="text3"
     style="font-style:normal;font-variant:normal;font-weight:normal;font-stretch:normal;line-height:0;font-family:Verdana;-inkscape-font-specification:Verdana;text-align:center;letter-spacing:0px;writing-mode:lr-tb;direction:ltr;text-orientation:sideways;baseline-shift:baseline;white-space:pre;shape-inside:url(#rect3);display:inline;opacity:1;fill:#000000;fill-opacity:1;stroke:none;stroke-width:0.00113622;stroke-dasharray:none;stroke-opacity:1"
     inkscape:label="Identifiant"><tspan
       x="436.28809"
       y="816.79953"
       id="tspan2">OSOLAMOS_001</tspan></text></svg>
