M48
METRIC,LZ,000.000
;FILE_FORMAT=3:3
;TYPE=PLATED
;Layer: PTH_Through
;EasyEDA v6.5.46, 2026-01-20 15:08:04
;c055b5996b2b4ee9ab75fef97cfab9db,2531f63ba3b24be780b21f3747bff2ee,10
;Gerber Generator version 0.2
;Holesize 1 = 0.889 mm
T01C0.889
;Holesize 2 = 0.900 mm
T02C0.900
;Holesize 3 = 0.901 mm
T03C0.901
;Holesize 4 = 0.915 mm
T04C0.915
;Holesize 5 = 1.000 mm
T05C1.000
;Holesize 6 = 1.016 mm
T06C1.016
;Holesize 7 = 1.101 mm
T07C1.101
;Holesize 8 = 1.800 mm
T08C1.800
;Holesize 9 = 1.829 mm
T09C1.829
;Holesize 10 = 1.830 mm
T10C1.830
;Holesize 11 = 1.851 mm
T11C1.851
%
G05
G90
T01
X023495Y-096012
X020955Y-096012
X005080Y-081026
X007620Y-081026
X010160Y-081026
X012700Y-081026
X015240Y-081026
X017780Y-081026
T02
X037211Y-054483
X037211Y-046863
T03
X037592Y-058166
X037592Y-060706
T04
X038989Y-064516
X038989Y-067056
X038989Y-069596
X038989Y-072136
X038989Y-077216
X038989Y-074676
X026289Y-074676
X026289Y-079756
X026289Y-077216
X026289Y-072136
X026289Y-069596
X026289Y-067056
X026289Y-064516
X020447Y-081026
T05
X008509Y-049530
X008509Y-046990
X008509Y-044450
X008509Y-041910
X008509Y-039370
X008509Y-036830
X008509Y-034290
X008509Y-031750
X008509Y-029210
X008509Y-026670
X008509Y-024130
X008509Y-021590
X008509Y-019050
X008509Y-016510
X008509Y-013970
X033909Y-046990
X033909Y-044450
X033909Y-041910
X033909Y-039370
X033909Y-036830
X033909Y-034290
X033909Y-031750
X033909Y-029210
X033909Y-026670
X033909Y-024130
X033909Y-021590
X033909Y-019050
X033909Y-016510
X033909Y-013970
X033909Y-049530
X008509Y-011430
X008509Y-008890
X008509Y-052070
X033909Y-052070
X033909Y-011430
X033909Y-008890
T06
X016002Y-096139
X013462Y-096139
X010922Y-096139
X008382Y-096139
T07
X037758Y-095805
X026758Y-095805
T08
X029758Y-085805
X034758Y-085805
T09
X020955Y-075083
T10
X020955Y-003403
T11
X017321Y-015695G85X017321Y-015695
X022021Y-015695G85X022021Y-015695
X026721Y-015695G85X026721Y-015695
X028626Y-006165G85X028626Y-006165
X015416Y-006165G85X015416Y-006165
M30
