G04 Layer: TopSilkscreenLayer*
G04 EasyEDA v6.5.46, 2026-01-20 15:08:04*
G04 c055b5996b2b4ee9ab75fef97cfab9db,2531f63ba3b24be780b21f3747bff2ee,10*
G04 Gerber Generator version 0.2*
G04 Scale: 100 percent, Rotated: No, Reflected: No *
G04 Dimensions in millimeters *
G04 leading zeros omitted , absolute positions ,4 integer and 5 decimal *
%FSLAX45Y45*%
%MOMM*%

%ADD10C,0.1524*%
%ADD11C,0.2032*%
%ADD12C,0.1500*%
%ADD13C,0.2540*%
%ADD14C,0.4000*%
%ADD15C,0.2000*%
%ADD16C,0.1001*%
%ADD17C,0.1270*%
%ADD18C,0.2030*%
%ADD19C,0.1999*%
%ADD20C,0.0116*%

%LPD*%
D10*
X3278365Y-8313293D02*
G01*
X3273031Y-8302879D01*
X3262617Y-8292464D01*
X3252457Y-8287385D01*
X3231629Y-8287385D01*
X3221215Y-8292464D01*
X3210801Y-8302879D01*
X3205467Y-8313293D01*
X3200387Y-8329040D01*
X3200387Y-8354948D01*
X3205467Y-8370443D01*
X3210801Y-8380856D01*
X3221215Y-8391270D01*
X3231629Y-8396351D01*
X3252457Y-8396351D01*
X3262617Y-8391270D01*
X3273031Y-8380856D01*
X3278365Y-8370443D01*
X3312655Y-8287385D02*
G01*
X3312655Y-8396351D01*
X3312655Y-8287385D02*
G01*
X3385299Y-8396351D01*
X3385299Y-8287385D02*
G01*
X3385299Y-8396351D01*
X3419589Y-8308212D02*
G01*
X3430003Y-8302879D01*
X3445497Y-8287385D01*
X3445497Y-8396351D01*
X2120900Y13715D02*
G01*
X2120900Y-95250D01*
X2120900Y13715D02*
G01*
X2188463Y13715D01*
X2120900Y-38100D02*
G01*
X2162556Y-38100D01*
X2120900Y-95250D02*
G01*
X2188463Y-95250D01*
X2295397Y-1778D02*
G01*
X2284984Y8636D01*
X2269490Y13715D01*
X2248661Y13715D01*
X2233168Y8636D01*
X2222754Y-1778D01*
X2222754Y-12192D01*
X2227834Y-22605D01*
X2233168Y-27939D01*
X2243581Y-33020D01*
X2274570Y-43434D01*
X2284984Y-48513D01*
X2290318Y-53847D01*
X2295397Y-64262D01*
X2295397Y-79755D01*
X2284984Y-90170D01*
X2269490Y-95250D01*
X2248661Y-95250D01*
X2233168Y-90170D01*
X2222754Y-79755D01*
X2329688Y13715D02*
G01*
X2329688Y-95250D01*
X2329688Y13715D02*
G01*
X2376424Y13715D01*
X2392172Y8636D01*
X2397252Y3302D01*
X2402586Y-7112D01*
X2402586Y-22605D01*
X2397252Y-33020D01*
X2392172Y-38100D01*
X2376424Y-43434D01*
X2329688Y-43434D01*
X2447290Y13715D02*
G01*
X2504440Y13715D01*
X2473197Y-27939D01*
X2488691Y-27939D01*
X2499106Y-33020D01*
X2504440Y-38100D01*
X2509520Y-53847D01*
X2509520Y-64262D01*
X2504440Y-79755D01*
X2494025Y-90170D01*
X2478277Y-95250D01*
X2462784Y-95250D01*
X2447290Y-90170D01*
X2441956Y-85089D01*
X2436875Y-74676D01*
X2548890Y-12192D02*
G01*
X2548890Y-7112D01*
X2554224Y3302D01*
X2559304Y8636D01*
X2569718Y13715D01*
X2590545Y13715D01*
X2600959Y8636D01*
X2606040Y3302D01*
X2611374Y-7112D01*
X2611374Y-17526D01*
X2606040Y-27939D01*
X2595879Y-43434D01*
X2543809Y-95250D01*
X2616454Y-95250D01*
X2650743Y-48513D02*
G01*
X2744470Y-48513D01*
X2778759Y13715D02*
G01*
X2778759Y-95250D01*
X2778759Y13715D02*
G01*
X2846070Y13715D01*
X2778759Y-38100D02*
G01*
X2820161Y-38100D01*
X2880359Y13715D02*
G01*
X2880359Y-95250D01*
X2880359Y13715D02*
G01*
X2927350Y13715D01*
X2942843Y8636D01*
X2947924Y3302D01*
X2953258Y-7112D01*
X2953258Y-17526D01*
X2947924Y-27939D01*
X2942843Y-33020D01*
X2927350Y-38100D01*
X2880359Y-38100D02*
G01*
X2927350Y-38100D01*
X2942843Y-43434D01*
X2947924Y-48513D01*
X2953258Y-58928D01*
X2953258Y-74676D01*
X2947924Y-85089D01*
X2942843Y-90170D01*
X2927350Y-95250D01*
X2880359Y-95250D01*
D11*
X3062986Y-1355344D02*
G01*
X3035300Y-1428242D01*
X3062986Y-1355344D02*
G01*
X3090672Y-1428242D01*
X3045713Y-1403857D02*
G01*
X3080258Y-1403857D01*
X3113531Y-1355344D02*
G01*
X3113531Y-1428242D01*
X3113531Y-1355344D02*
G01*
X3144774Y-1355344D01*
X3155188Y-1358900D01*
X3158490Y-1362455D01*
X3162045Y-1369313D01*
X3162045Y-1376171D01*
X3158490Y-1383029D01*
X3155188Y-1386586D01*
X3144774Y-1390142D01*
X3113531Y-1390142D01*
X3137915Y-1390142D02*
G01*
X3162045Y-1428242D01*
X3184906Y-1355344D02*
G01*
X3184906Y-1428242D01*
X3184906Y-1355344D02*
G01*
X3229863Y-1355344D01*
X3184906Y-1390142D02*
G01*
X3212591Y-1390142D01*
X3184906Y-1428242D02*
G01*
X3229863Y-1428242D01*
X3252724Y-1355344D02*
G01*
X3252724Y-1428242D01*
X3252724Y-1355344D02*
G01*
X3297936Y-1355344D01*
X3252724Y-1390142D02*
G01*
X3280409Y-1390142D01*
X1485900Y-250189D02*
G01*
X1485900Y-318515D01*
X1490471Y-331978D01*
X1499615Y-341121D01*
X1513078Y-345694D01*
X1522221Y-345694D01*
X1535937Y-341121D01*
X1545081Y-331978D01*
X1549654Y-318515D01*
X1549654Y-250189D01*
X1643126Y-263652D02*
G01*
X1633981Y-254762D01*
X1620520Y-250189D01*
X1602231Y-250189D01*
X1588515Y-254762D01*
X1579626Y-263652D01*
X1579626Y-273050D01*
X1584197Y-282194D01*
X1588515Y-286512D01*
X1597660Y-291337D01*
X1625092Y-300228D01*
X1633981Y-304800D01*
X1638554Y-309371D01*
X1643126Y-318515D01*
X1643126Y-331978D01*
X1633981Y-341121D01*
X1620520Y-345694D01*
X1602231Y-345694D01*
X1588515Y-341121D01*
X1579626Y-331978D01*
X1673097Y-250189D02*
G01*
X1673097Y-345694D01*
X1673097Y-250189D02*
G01*
X1713992Y-250189D01*
X1727707Y-254762D01*
X1732279Y-259587D01*
X1736852Y-268478D01*
X1736852Y-277621D01*
X1732279Y-286512D01*
X1727707Y-291337D01*
X1713992Y-295402D01*
X1673097Y-295402D02*
G01*
X1713992Y-295402D01*
X1727707Y-300228D01*
X1732279Y-304800D01*
X1736852Y-313944D01*
X1736852Y-327152D01*
X1732279Y-336550D01*
X1727707Y-341121D01*
X1713992Y-345694D01*
X1673097Y-345694D01*
X1333500Y-459994D02*
G01*
X1333500Y-523494D01*
X1333500Y-478281D02*
G01*
X1347215Y-464312D01*
X1356105Y-459994D01*
X1369821Y-459994D01*
X1378965Y-464312D01*
X1383537Y-478281D01*
X1383537Y-523494D01*
X1383537Y-478281D02*
G01*
X1397254Y-464312D01*
X1406144Y-459994D01*
X1419860Y-459994D01*
X1429004Y-464312D01*
X1433576Y-478281D01*
X1433576Y-523494D01*
X1463547Y-427989D02*
G01*
X1468120Y-432562D01*
X1472692Y-427989D01*
X1468120Y-423671D01*
X1463547Y-427989D01*
X1468120Y-459994D02*
G01*
X1468120Y-523494D01*
X1557020Y-473455D02*
G01*
X1548129Y-464312D01*
X1538986Y-459994D01*
X1525270Y-459994D01*
X1516126Y-464312D01*
X1507236Y-473455D01*
X1502663Y-487171D01*
X1502663Y-496570D01*
X1507236Y-510031D01*
X1516126Y-518921D01*
X1525270Y-523494D01*
X1538986Y-523494D01*
X1548129Y-518921D01*
X1557020Y-510031D01*
X1587245Y-459994D02*
G01*
X1587245Y-523494D01*
X1587245Y-487171D02*
G01*
X1591563Y-473455D01*
X1600707Y-464312D01*
X1609852Y-459994D01*
X1623568Y-459994D01*
X1676145Y-459994D02*
G01*
X1667255Y-464312D01*
X1658112Y-473455D01*
X1653539Y-487171D01*
X1653539Y-496570D01*
X1658112Y-510031D01*
X1667255Y-518921D01*
X1676145Y-523494D01*
X1689862Y-523494D01*
X1699005Y-518921D01*
X1708150Y-510031D01*
X1712468Y-496570D01*
X1712468Y-487171D01*
X1708150Y-473455D01*
X1699005Y-464312D01*
X1689862Y-459994D01*
X1676145Y-459994D01*
X1812544Y-427989D02*
G01*
X1812544Y-523494D01*
X1812544Y-427989D02*
G01*
X1853437Y-427989D01*
X1867154Y-432562D01*
X1871726Y-437134D01*
X1876297Y-446531D01*
X1876297Y-455421D01*
X1871726Y-464312D01*
X1867154Y-468884D01*
X1853437Y-473455D01*
X1812544Y-473455D02*
G01*
X1853437Y-473455D01*
X1867154Y-478281D01*
X1871726Y-482600D01*
X1876297Y-491744D01*
X1876297Y-505205D01*
X1871726Y-514350D01*
X1867154Y-518921D01*
X1853437Y-523494D01*
X1812544Y-523494D01*
X1612900Y-4472178D02*
G01*
X1612900Y-4558029D01*
X1612900Y-4472178D02*
G01*
X1665986Y-4472178D01*
X1612900Y-4513071D02*
G01*
X1645665Y-4513071D01*
X1612900Y-4558029D02*
G01*
X1665986Y-4558029D01*
X1750313Y-4484370D02*
G01*
X1742186Y-4476242D01*
X1729994Y-4472178D01*
X1713484Y-4472178D01*
X1701292Y-4476242D01*
X1693163Y-4484370D01*
X1693163Y-4492497D01*
X1697228Y-4500626D01*
X1701292Y-4504944D01*
X1709420Y-4509007D01*
X1734057Y-4517136D01*
X1742186Y-4521200D01*
X1746250Y-4525263D01*
X1750313Y-4533392D01*
X1750313Y-4545837D01*
X1742186Y-4553965D01*
X1729994Y-4558029D01*
X1713484Y-4558029D01*
X1701292Y-4553965D01*
X1693163Y-4545837D01*
X1777237Y-4472178D02*
G01*
X1777237Y-4558029D01*
X1777237Y-4472178D02*
G01*
X1814068Y-4472178D01*
X1826513Y-4476242D01*
X1830578Y-4480305D01*
X1834642Y-4488434D01*
X1834642Y-4500626D01*
X1830578Y-4509007D01*
X1826513Y-4513071D01*
X1814068Y-4517136D01*
X1777237Y-4517136D01*
X1861565Y-4521200D02*
G01*
X1935225Y-4521200D01*
X1962150Y-4472178D02*
G01*
X1982724Y-4558029D01*
X2003297Y-4472178D02*
G01*
X1982724Y-4558029D01*
X2003297Y-4472178D02*
G01*
X2023618Y-4558029D01*
X2044191Y-4472178D02*
G01*
X2023618Y-4558029D01*
X2071115Y-4472178D02*
G01*
X2071115Y-4558029D01*
X2071115Y-4472178D02*
G01*
X2107945Y-4472178D01*
X2120138Y-4476242D01*
X2124202Y-4480305D01*
X2128265Y-4488434D01*
X2128265Y-4496562D01*
X2124202Y-4504944D01*
X2120138Y-4509007D01*
X2107945Y-4513071D01*
X2071115Y-4513071D01*
X2099818Y-4513071D02*
G01*
X2128265Y-4558029D01*
X2179827Y-4472178D02*
G01*
X2171700Y-4476242D01*
X2163572Y-4484370D01*
X2159508Y-4492497D01*
X2155443Y-4504944D01*
X2155443Y-4525263D01*
X2159508Y-4537455D01*
X2163572Y-4545837D01*
X2171700Y-4553965D01*
X2179827Y-4558029D01*
X2196338Y-4558029D01*
X2204465Y-4553965D01*
X2212593Y-4545837D01*
X2216658Y-4537455D01*
X2220722Y-4525263D01*
X2220722Y-4504944D01*
X2216658Y-4492497D01*
X2212593Y-4484370D01*
X2204465Y-4476242D01*
X2196338Y-4472178D01*
X2179827Y-4472178D01*
X2272284Y-4472178D02*
G01*
X2264156Y-4476242D01*
X2256027Y-4484370D01*
X2251963Y-4492497D01*
X2247900Y-4504944D01*
X2247900Y-4525263D01*
X2251963Y-4537455D01*
X2256027Y-4545837D01*
X2264156Y-4553965D01*
X2272284Y-4558029D01*
X2288793Y-4558029D01*
X2296922Y-4553965D01*
X2305050Y-4545837D01*
X2309113Y-4537455D01*
X2313177Y-4525263D01*
X2313177Y-4504944D01*
X2309113Y-4492497D01*
X2305050Y-4484370D01*
X2296922Y-4476242D01*
X2288793Y-4472178D01*
X2272284Y-4472178D01*
X2340356Y-4472178D02*
G01*
X2340356Y-4558029D01*
X2340356Y-4472178D02*
G01*
X2372868Y-4558029D01*
X2405634Y-4472178D02*
G01*
X2372868Y-4558029D01*
X2405634Y-4472178D02*
G01*
X2405634Y-4558029D01*
X2432811Y-4521200D02*
G01*
X2506472Y-4521200D01*
X2541524Y-4472178D02*
G01*
X2586481Y-4472178D01*
X2562097Y-4504944D01*
X2574290Y-4504944D01*
X2582418Y-4509007D01*
X2586481Y-4513071D01*
X2590545Y-4525263D01*
X2590545Y-4533392D01*
X2586481Y-4545837D01*
X2578354Y-4553965D01*
X2566161Y-4558029D01*
X2553715Y-4558029D01*
X2541524Y-4553965D01*
X2537459Y-4549902D01*
X2533395Y-4541773D01*
X2621788Y-4492497D02*
G01*
X2621788Y-4488434D01*
X2625852Y-4480305D01*
X2629915Y-4476242D01*
X2638043Y-4472178D01*
X2654554Y-4472178D01*
X2662681Y-4476242D01*
X2666745Y-4480305D01*
X2670809Y-4488434D01*
X2670809Y-4496562D01*
X2666745Y-4504944D01*
X2658618Y-4517136D01*
X2617724Y-4558029D01*
X2674874Y-4558029D01*
X3087370Y-1626870D02*
G01*
X3083813Y-1619757D01*
X3076956Y-1612900D01*
X3069843Y-1609344D01*
X3056127Y-1609344D01*
X3049270Y-1612900D01*
X3042158Y-1619757D01*
X3038856Y-1626870D01*
X3035300Y-1637029D01*
X3035300Y-1654555D01*
X3038856Y-1664970D01*
X3042158Y-1671828D01*
X3049270Y-1678686D01*
X3056127Y-1682242D01*
X3069843Y-1682242D01*
X3076956Y-1678686D01*
X3083813Y-1671828D01*
X3087370Y-1664970D01*
X3087370Y-1654555D01*
X3069843Y-1654555D02*
G01*
X3087370Y-1654555D01*
X3110229Y-1609344D02*
G01*
X3110229Y-1682242D01*
X3110229Y-1609344D02*
G01*
X3158490Y-1682242D01*
X3158490Y-1609344D02*
G01*
X3158490Y-1682242D01*
X3181350Y-1609344D02*
G01*
X3181350Y-1682242D01*
X3181350Y-1609344D02*
G01*
X3205734Y-1609344D01*
X3216147Y-1612900D01*
X3223006Y-1619757D01*
X3226561Y-1626870D01*
X3229863Y-1637029D01*
X3229863Y-1654555D01*
X3226561Y-1664970D01*
X3223006Y-1671828D01*
X3216147Y-1678686D01*
X3205734Y-1682242D01*
X3181350Y-1682242D01*
X2807970Y-1910842D02*
G01*
X2804413Y-1903729D01*
X2797556Y-1896871D01*
X2790443Y-1893315D01*
X2776727Y-1893315D01*
X2769870Y-1896871D01*
X2762758Y-1903729D01*
X2759456Y-1910842D01*
X2755900Y-1921002D01*
X2755900Y-1938528D01*
X2759456Y-1948942D01*
X2762758Y-1955800D01*
X2769870Y-1962657D01*
X2776727Y-1966213D01*
X2790443Y-1966213D01*
X2797556Y-1962657D01*
X2804413Y-1955800D01*
X2807970Y-1948942D01*
X2830829Y-1893315D02*
G01*
X2830829Y-1966213D01*
X2830829Y-1893315D02*
G01*
X2858515Y-1966213D01*
X2886202Y-1893315D02*
G01*
X2858515Y-1966213D01*
X2886202Y-1893315D02*
G01*
X2886202Y-1966213D01*
X2909061Y-1893315D02*
G01*
X2909061Y-1966213D01*
X2909061Y-1893315D02*
G01*
X2933191Y-1893315D01*
X2943606Y-1896871D01*
X2950463Y-1903729D01*
X2954020Y-1910842D01*
X2957575Y-1921002D01*
X2957575Y-1938528D01*
X2954020Y-1948942D01*
X2950463Y-1955800D01*
X2943606Y-1962657D01*
X2933191Y-1966213D01*
X2909061Y-1966213D01*
X3042665Y-1879600D02*
G01*
X2980436Y-1990344D01*
X3065525Y-1893315D02*
G01*
X3065525Y-1966213D01*
X3109213Y-1893315D02*
G01*
X3102356Y-1896871D01*
X3095243Y-1903729D01*
X3091941Y-1910842D01*
X3088386Y-1921002D01*
X3088386Y-1938528D01*
X3091941Y-1948942D01*
X3095243Y-1955800D01*
X3102356Y-1962657D01*
X3109213Y-1966213D01*
X3122929Y-1966213D01*
X3130041Y-1962657D01*
X3136900Y-1955800D01*
X3140456Y-1948942D01*
X3143758Y-1938528D01*
X3143758Y-1921002D01*
X3140456Y-1910842D01*
X3136900Y-1903729D01*
X3130041Y-1896871D01*
X3122929Y-1893315D01*
X3109213Y-1893315D01*
X3166618Y-1907286D02*
G01*
X3173729Y-1903729D01*
X3183890Y-1893315D01*
X3183890Y-1966213D01*
X3206750Y-1907286D02*
G01*
X3213861Y-1903729D01*
X3224275Y-1893315D01*
X3224275Y-1966213D01*
X2855213Y-2132329D02*
G01*
X2848356Y-2125471D01*
X2837941Y-2121915D01*
X2823972Y-2121915D01*
X2813558Y-2125471D01*
X2806700Y-2132329D01*
X2806700Y-2139442D01*
X2810256Y-2146300D01*
X2813558Y-2149602D01*
X2820670Y-2153157D01*
X2841243Y-2160015D01*
X2848356Y-2163571D01*
X2851658Y-2167128D01*
X2855213Y-2173986D01*
X2855213Y-2184400D01*
X2848356Y-2191257D01*
X2837941Y-2194813D01*
X2823972Y-2194813D01*
X2813558Y-2191257D01*
X2806700Y-2184400D01*
X2878074Y-2121915D02*
G01*
X2878074Y-2194813D01*
X2878074Y-2121915D02*
G01*
X2902204Y-2121915D01*
X2912618Y-2125471D01*
X2919729Y-2132329D01*
X2923031Y-2139442D01*
X2926588Y-2149602D01*
X2926588Y-2167128D01*
X2923031Y-2177542D01*
X2919729Y-2184400D01*
X2912618Y-2191257D01*
X2902204Y-2194813D01*
X2878074Y-2194813D01*
X2949447Y-2135886D02*
G01*
X2956306Y-2132329D01*
X2966720Y-2121915D01*
X2966720Y-2194813D01*
X3051809Y-2108200D02*
G01*
X2989579Y-2218944D01*
X3074670Y-2121915D02*
G01*
X3074670Y-2194813D01*
X3118358Y-2121915D02*
G01*
X3111500Y-2125471D01*
X3104641Y-2132329D01*
X3101086Y-2139442D01*
X3097529Y-2149602D01*
X3097529Y-2167128D01*
X3101086Y-2177542D01*
X3104641Y-2184400D01*
X3111500Y-2191257D01*
X3118358Y-2194813D01*
X3132327Y-2194813D01*
X3139186Y-2191257D01*
X3146043Y-2184400D01*
X3149600Y-2177542D01*
X3153156Y-2167128D01*
X3153156Y-2149602D01*
X3149600Y-2139442D01*
X3146043Y-2132329D01*
X3139186Y-2125471D01*
X3132327Y-2121915D01*
X3118358Y-2121915D01*
X3193288Y-2121915D02*
G01*
X3182874Y-2125471D01*
X3179318Y-2132329D01*
X3179318Y-2139442D01*
X3182874Y-2146300D01*
X3189731Y-2149602D01*
X3203702Y-2153157D01*
X3214115Y-2156713D01*
X3220974Y-2163571D01*
X3224529Y-2170429D01*
X3224529Y-2180844D01*
X3220974Y-2187702D01*
X3217418Y-2191257D01*
X3207004Y-2194813D01*
X3193288Y-2194813D01*
X3182874Y-2191257D01*
X3179318Y-2187702D01*
X3176015Y-2180844D01*
X3176015Y-2170429D01*
X3179318Y-2163571D01*
X3186429Y-2156713D01*
X3196590Y-2153157D01*
X3210559Y-2149602D01*
X3217418Y-2146300D01*
X3220974Y-2139442D01*
X3220974Y-2132329D01*
X3217418Y-2125471D01*
X3207004Y-2121915D01*
X3193288Y-2121915D01*
X2829813Y-2386329D02*
G01*
X2822956Y-2379471D01*
X2812541Y-2375915D01*
X2798572Y-2375915D01*
X2788158Y-2379471D01*
X2781300Y-2386329D01*
X2781300Y-2393442D01*
X2784856Y-2400300D01*
X2788158Y-2403602D01*
X2795270Y-2407157D01*
X2815843Y-2414015D01*
X2822956Y-2417571D01*
X2826258Y-2421128D01*
X2829813Y-2427986D01*
X2829813Y-2438400D01*
X2822956Y-2445257D01*
X2812541Y-2448813D01*
X2798572Y-2448813D01*
X2788158Y-2445257D01*
X2781300Y-2438400D01*
X2852674Y-2375915D02*
G01*
X2852674Y-2448813D01*
X2852674Y-2375915D02*
G01*
X2876804Y-2375915D01*
X2887218Y-2379471D01*
X2894329Y-2386329D01*
X2897631Y-2393442D01*
X2901188Y-2403602D01*
X2901188Y-2421128D01*
X2897631Y-2431542D01*
X2894329Y-2438400D01*
X2887218Y-2445257D01*
X2876804Y-2448813D01*
X2852674Y-2448813D01*
X2944875Y-2375915D02*
G01*
X2934461Y-2379471D01*
X2927350Y-2389886D01*
X2924047Y-2407157D01*
X2924047Y-2417571D01*
X2927350Y-2434844D01*
X2934461Y-2445257D01*
X2944875Y-2448813D01*
X2951734Y-2448813D01*
X2962147Y-2445257D01*
X2969006Y-2434844D01*
X2972561Y-2417571D01*
X2972561Y-2407157D01*
X2969006Y-2389886D01*
X2962147Y-2379471D01*
X2951734Y-2375915D01*
X2944875Y-2375915D01*
X3057652Y-2362200D02*
G01*
X2995422Y-2472944D01*
X3080511Y-2375915D02*
G01*
X3080511Y-2448813D01*
X3124200Y-2375915D02*
G01*
X3117341Y-2379471D01*
X3110229Y-2386329D01*
X3106927Y-2393442D01*
X3103372Y-2403602D01*
X3103372Y-2421128D01*
X3106927Y-2431542D01*
X3110229Y-2438400D01*
X3117341Y-2445257D01*
X3124200Y-2448813D01*
X3138170Y-2448813D01*
X3145027Y-2445257D01*
X3151886Y-2438400D01*
X3155441Y-2431542D01*
X3158743Y-2421128D01*
X3158743Y-2403602D01*
X3155441Y-2393442D01*
X3151886Y-2386329D01*
X3145027Y-2379471D01*
X3138170Y-2375915D01*
X3124200Y-2375915D01*
X3230118Y-2375915D02*
G01*
X3195574Y-2448813D01*
X3181604Y-2375915D02*
G01*
X3230118Y-2375915D01*
X2833370Y-2647442D02*
G01*
X2829813Y-2640329D01*
X2822956Y-2633471D01*
X2815843Y-2629915D01*
X2802127Y-2629915D01*
X2795270Y-2633471D01*
X2788158Y-2640329D01*
X2784856Y-2647442D01*
X2781300Y-2657602D01*
X2781300Y-2675128D01*
X2784856Y-2685542D01*
X2788158Y-2692400D01*
X2795270Y-2699257D01*
X2802127Y-2702813D01*
X2815843Y-2702813D01*
X2822956Y-2699257D01*
X2829813Y-2692400D01*
X2833370Y-2685542D01*
X2856229Y-2629915D02*
G01*
X2856229Y-2702813D01*
X2856229Y-2702813D02*
G01*
X2897631Y-2702813D01*
X2920491Y-2629915D02*
G01*
X2920491Y-2702813D01*
X2969006Y-2629915D02*
G01*
X2920491Y-2678429D01*
X2937763Y-2661157D02*
G01*
X2969006Y-2702813D01*
X3054350Y-2616200D02*
G01*
X2991865Y-2726944D01*
X3077209Y-2629915D02*
G01*
X3077209Y-2702813D01*
X3120643Y-2629915D02*
G01*
X3113786Y-2633471D01*
X3106927Y-2640329D01*
X3103372Y-2647442D01*
X3100070Y-2657602D01*
X3100070Y-2675128D01*
X3103372Y-2685542D01*
X3106927Y-2692400D01*
X3113786Y-2699257D01*
X3120643Y-2702813D01*
X3134613Y-2702813D01*
X3141472Y-2699257D01*
X3148329Y-2692400D01*
X3151886Y-2685542D01*
X3155441Y-2675128D01*
X3155441Y-2657602D01*
X3151886Y-2647442D01*
X3148329Y-2640329D01*
X3141472Y-2633471D01*
X3134613Y-2629915D01*
X3120643Y-2629915D01*
X3219704Y-2640329D02*
G01*
X3216402Y-2633471D01*
X3205988Y-2629915D01*
X3199129Y-2629915D01*
X3188715Y-2633471D01*
X3181604Y-2643886D01*
X3178302Y-2661157D01*
X3178302Y-2678429D01*
X3181604Y-2692400D01*
X3188715Y-2699257D01*
X3199129Y-2702813D01*
X3202431Y-2702813D01*
X3212845Y-2699257D01*
X3219704Y-2692400D01*
X3223259Y-2681986D01*
X3223259Y-2678429D01*
X3219704Y-2668015D01*
X3212845Y-2661157D01*
X3202431Y-2657602D01*
X3199129Y-2657602D01*
X3188715Y-2661157D01*
X3181604Y-2668015D01*
X3178302Y-2678429D01*
X3060700Y-2879344D02*
G01*
X3060700Y-2952242D01*
X3060700Y-2879344D02*
G01*
X3084829Y-2879344D01*
X3095243Y-2882900D01*
X3102356Y-2889757D01*
X3105658Y-2896870D01*
X3109213Y-2907029D01*
X3109213Y-2924555D01*
X3105658Y-2934970D01*
X3102356Y-2941828D01*
X3095243Y-2948686D01*
X3084829Y-2952242D01*
X3060700Y-2952242D01*
X3177031Y-2903728D02*
G01*
X3173729Y-2914142D01*
X3166618Y-2921000D01*
X3156204Y-2924555D01*
X3152902Y-2924555D01*
X3142488Y-2921000D01*
X3135629Y-2914142D01*
X3132074Y-2903728D01*
X3132074Y-2900171D01*
X3135629Y-2889757D01*
X3142488Y-2882900D01*
X3152902Y-2879344D01*
X3156204Y-2879344D01*
X3166618Y-2882900D01*
X3173729Y-2889757D01*
X3177031Y-2903728D01*
X3177031Y-2921000D01*
X3173729Y-2938271D01*
X3166618Y-2948686D01*
X3156204Y-2952242D01*
X3149345Y-2952242D01*
X3138931Y-2948686D01*
X3135629Y-2941828D01*
X3060700Y-3133344D02*
G01*
X3060700Y-3206242D01*
X3060700Y-3133344D02*
G01*
X3084829Y-3133344D01*
X3095243Y-3136900D01*
X3102356Y-3143757D01*
X3105658Y-3150870D01*
X3109213Y-3161029D01*
X3109213Y-3178555D01*
X3105658Y-3188970D01*
X3102356Y-3195828D01*
X3095243Y-3202686D01*
X3084829Y-3206242D01*
X3060700Y-3206242D01*
X3149345Y-3133344D02*
G01*
X3138931Y-3136900D01*
X3135629Y-3143757D01*
X3135629Y-3150870D01*
X3138931Y-3157728D01*
X3145790Y-3161029D01*
X3159759Y-3164586D01*
X3170174Y-3168142D01*
X3177031Y-3175000D01*
X3180588Y-3181857D01*
X3180588Y-3192271D01*
X3177031Y-3199129D01*
X3173729Y-3202686D01*
X3163315Y-3206242D01*
X3149345Y-3206242D01*
X3138931Y-3202686D01*
X3135629Y-3199129D01*
X3132074Y-3192271D01*
X3132074Y-3181857D01*
X3135629Y-3175000D01*
X3142488Y-3168142D01*
X3152902Y-3164586D01*
X3166618Y-3161029D01*
X3173729Y-3157728D01*
X3177031Y-3150870D01*
X3177031Y-3143757D01*
X3173729Y-3136900D01*
X3163315Y-3133344D01*
X3149345Y-3133344D01*
X3060700Y-3387344D02*
G01*
X3060700Y-3460242D01*
X3060700Y-3387344D02*
G01*
X3084829Y-3387344D01*
X3095243Y-3390900D01*
X3102356Y-3397757D01*
X3105658Y-3404870D01*
X3109213Y-3415029D01*
X3109213Y-3432555D01*
X3105658Y-3442970D01*
X3102356Y-3449828D01*
X3095243Y-3456686D01*
X3084829Y-3460242D01*
X3060700Y-3460242D01*
X3180588Y-3387344D02*
G01*
X3145790Y-3460242D01*
X3132074Y-3387344D02*
G01*
X3180588Y-3387344D01*
X3060700Y-3641344D02*
G01*
X3060700Y-3714242D01*
X3060700Y-3641344D02*
G01*
X3084829Y-3641344D01*
X3095243Y-3644900D01*
X3102356Y-3651757D01*
X3105658Y-3658870D01*
X3109213Y-3669029D01*
X3109213Y-3686555D01*
X3105658Y-3696970D01*
X3102356Y-3703828D01*
X3095243Y-3710686D01*
X3084829Y-3714242D01*
X3060700Y-3714242D01*
X3173729Y-3651757D02*
G01*
X3170174Y-3644900D01*
X3159759Y-3641344D01*
X3152902Y-3641344D01*
X3142488Y-3644900D01*
X3135629Y-3655313D01*
X3132074Y-3672586D01*
X3132074Y-3689857D01*
X3135629Y-3703828D01*
X3142488Y-3710686D01*
X3152902Y-3714242D01*
X3156204Y-3714242D01*
X3166618Y-3710686D01*
X3173729Y-3703828D01*
X3177031Y-3693413D01*
X3177031Y-3689857D01*
X3173729Y-3679444D01*
X3166618Y-3672586D01*
X3156204Y-3669029D01*
X3152902Y-3669029D01*
X3142488Y-3672586D01*
X3135629Y-3679444D01*
X3132074Y-3689857D01*
X3060700Y-3895344D02*
G01*
X3060700Y-3968242D01*
X3060700Y-3895344D02*
G01*
X3084829Y-3895344D01*
X3095243Y-3898900D01*
X3102356Y-3905757D01*
X3105658Y-3912870D01*
X3109213Y-3923029D01*
X3109213Y-3940555D01*
X3105658Y-3950970D01*
X3102356Y-3957828D01*
X3095243Y-3964686D01*
X3084829Y-3968242D01*
X3060700Y-3968242D01*
X3173729Y-3895344D02*
G01*
X3138931Y-3895344D01*
X3135629Y-3926586D01*
X3138931Y-3923029D01*
X3149345Y-3919728D01*
X3159759Y-3919728D01*
X3170174Y-3923029D01*
X3177031Y-3930142D01*
X3180588Y-3940555D01*
X3180588Y-3947413D01*
X3177031Y-3957828D01*
X3170174Y-3964686D01*
X3159759Y-3968242D01*
X3149345Y-3968242D01*
X3138931Y-3964686D01*
X3135629Y-3961129D01*
X3132074Y-3954271D01*
X3060700Y-4174744D02*
G01*
X3060700Y-4247642D01*
X3060700Y-4174744D02*
G01*
X3084829Y-4174744D01*
X3095243Y-4178300D01*
X3102356Y-4185157D01*
X3105658Y-4192270D01*
X3109213Y-4202429D01*
X3109213Y-4219955D01*
X3105658Y-4230370D01*
X3102356Y-4237228D01*
X3095243Y-4244086D01*
X3084829Y-4247642D01*
X3060700Y-4247642D01*
X3166618Y-4174744D02*
G01*
X3132074Y-4223257D01*
X3183890Y-4223257D01*
X3166618Y-4174744D02*
G01*
X3166618Y-4247642D01*
X3060700Y-4403344D02*
G01*
X3060700Y-4476242D01*
X3060700Y-4403344D02*
G01*
X3084829Y-4403344D01*
X3095243Y-4406900D01*
X3102356Y-4413757D01*
X3105658Y-4420870D01*
X3109213Y-4431029D01*
X3109213Y-4448555D01*
X3105658Y-4458970D01*
X3102356Y-4465828D01*
X3095243Y-4472686D01*
X3084829Y-4476242D01*
X3060700Y-4476242D01*
X3138931Y-4403344D02*
G01*
X3177031Y-4403344D01*
X3156204Y-4431029D01*
X3166618Y-4431029D01*
X3173729Y-4434586D01*
X3177031Y-4438142D01*
X3180588Y-4448555D01*
X3180588Y-4455413D01*
X3177031Y-4465828D01*
X3170174Y-4472686D01*
X3159759Y-4476242D01*
X3149345Y-4476242D01*
X3138931Y-4472686D01*
X3135629Y-4469129D01*
X3132074Y-4462271D01*
X3060700Y-4657344D02*
G01*
X3060700Y-4730242D01*
X3060700Y-4657344D02*
G01*
X3084829Y-4657344D01*
X3095243Y-4660900D01*
X3102356Y-4667757D01*
X3105658Y-4674870D01*
X3109213Y-4685029D01*
X3109213Y-4702555D01*
X3105658Y-4712970D01*
X3102356Y-4719828D01*
X3095243Y-4726686D01*
X3084829Y-4730242D01*
X3060700Y-4730242D01*
X3135629Y-4674870D02*
G01*
X3135629Y-4671313D01*
X3138931Y-4664455D01*
X3142488Y-4660900D01*
X3149345Y-4657344D01*
X3163315Y-4657344D01*
X3170174Y-4660900D01*
X3173729Y-4664455D01*
X3177031Y-4671313D01*
X3177031Y-4678171D01*
X3173729Y-4685029D01*
X3166618Y-4695444D01*
X3132074Y-4730242D01*
X3180588Y-4730242D01*
X1030986Y-4149344D02*
G01*
X1003300Y-4222242D01*
X1030986Y-4149344D02*
G01*
X1058671Y-4222242D01*
X1013713Y-4197857D02*
G01*
X1048257Y-4197857D01*
X1116329Y-4149344D02*
G01*
X1081531Y-4197857D01*
X1133602Y-4197857D01*
X1116329Y-4149344D02*
G01*
X1116329Y-4222242D01*
X1003300Y-1355344D02*
G01*
X1003300Y-1428242D01*
X1003300Y-1355344D02*
G01*
X1027429Y-1355344D01*
X1037844Y-1358900D01*
X1044955Y-1365757D01*
X1048257Y-1372870D01*
X1051813Y-1383029D01*
X1051813Y-1400555D01*
X1048257Y-1410970D01*
X1044955Y-1417828D01*
X1037844Y-1424686D01*
X1027429Y-1428242D01*
X1003300Y-1428242D01*
X1074673Y-1355344D02*
G01*
X1074673Y-1428242D01*
X1159763Y-1341628D02*
G01*
X1097534Y-1452371D01*
X1182623Y-1355344D02*
G01*
X1182623Y-1428242D01*
X1226312Y-1355344D02*
G01*
X1219454Y-1358900D01*
X1212595Y-1365757D01*
X1209039Y-1372870D01*
X1205484Y-1383029D01*
X1205484Y-1400555D01*
X1209039Y-1410970D01*
X1212595Y-1417828D01*
X1219454Y-1424686D01*
X1226312Y-1428242D01*
X1240281Y-1428242D01*
X1247139Y-1424686D01*
X1253997Y-1417828D01*
X1257554Y-1410970D01*
X1261110Y-1400555D01*
X1261110Y-1383029D01*
X1257554Y-1372870D01*
X1253997Y-1365757D01*
X1247139Y-1358900D01*
X1240281Y-1355344D01*
X1226312Y-1355344D01*
X1283970Y-1369313D02*
G01*
X1290828Y-1365757D01*
X1301242Y-1355344D01*
X1301242Y-1428242D01*
X1365504Y-1365757D02*
G01*
X1362202Y-1358900D01*
X1351787Y-1355344D01*
X1344929Y-1355344D01*
X1334515Y-1358900D01*
X1327404Y-1369313D01*
X1324102Y-1386586D01*
X1324102Y-1403857D01*
X1327404Y-1417828D01*
X1334515Y-1424686D01*
X1344929Y-1428242D01*
X1348231Y-1428242D01*
X1358645Y-1424686D01*
X1365504Y-1417828D01*
X1369060Y-1407413D01*
X1369060Y-1403857D01*
X1365504Y-1393444D01*
X1358645Y-1386586D01*
X1348231Y-1383029D01*
X1344929Y-1383029D01*
X1334515Y-1386586D01*
X1327404Y-1393444D01*
X1324102Y-1403857D01*
X1003300Y-1609344D02*
G01*
X1003300Y-1682242D01*
X1003300Y-1609344D02*
G01*
X1027429Y-1609344D01*
X1037844Y-1612900D01*
X1044955Y-1619757D01*
X1048257Y-1626870D01*
X1051813Y-1637029D01*
X1051813Y-1654555D01*
X1048257Y-1664970D01*
X1044955Y-1671828D01*
X1037844Y-1678686D01*
X1027429Y-1682242D01*
X1003300Y-1682242D01*
X1095502Y-1609344D02*
G01*
X1088389Y-1612900D01*
X1081531Y-1619757D01*
X1078229Y-1626870D01*
X1074673Y-1637029D01*
X1074673Y-1654555D01*
X1078229Y-1664970D01*
X1081531Y-1671828D01*
X1088389Y-1678686D01*
X1095502Y-1682242D01*
X1109218Y-1682242D01*
X1116329Y-1678686D01*
X1123187Y-1671828D01*
X1126489Y-1664970D01*
X1130045Y-1654555D01*
X1130045Y-1637029D01*
X1126489Y-1626870D01*
X1123187Y-1619757D01*
X1116329Y-1612900D01*
X1109218Y-1609344D01*
X1095502Y-1609344D01*
X1215389Y-1595628D02*
G01*
X1152905Y-1706371D01*
X1238250Y-1609344D02*
G01*
X1238250Y-1682242D01*
X1281684Y-1609344D02*
G01*
X1274826Y-1612900D01*
X1267968Y-1619757D01*
X1264412Y-1626870D01*
X1261110Y-1637029D01*
X1261110Y-1654555D01*
X1264412Y-1664970D01*
X1267968Y-1671828D01*
X1274826Y-1678686D01*
X1281684Y-1682242D01*
X1295654Y-1682242D01*
X1302512Y-1678686D01*
X1309370Y-1671828D01*
X1312926Y-1664970D01*
X1316481Y-1654555D01*
X1316481Y-1637029D01*
X1312926Y-1626870D01*
X1309370Y-1619757D01*
X1302512Y-1612900D01*
X1295654Y-1609344D01*
X1281684Y-1609344D01*
X1373886Y-1609344D02*
G01*
X1339342Y-1657857D01*
X1391157Y-1657857D01*
X1373886Y-1609344D02*
G01*
X1373886Y-1682242D01*
X1003300Y-1863344D02*
G01*
X1003300Y-1936242D01*
X1003300Y-1863344D02*
G01*
X1030986Y-1936242D01*
X1058671Y-1863344D02*
G01*
X1030986Y-1936242D01*
X1058671Y-1863344D02*
G01*
X1058671Y-1936242D01*
X1133602Y-1880870D02*
G01*
X1130045Y-1873757D01*
X1123187Y-1866900D01*
X1116329Y-1863344D01*
X1102360Y-1863344D01*
X1095502Y-1866900D01*
X1088389Y-1873757D01*
X1085087Y-1880870D01*
X1081531Y-1891029D01*
X1081531Y-1908555D01*
X1085087Y-1918970D01*
X1088389Y-1925828D01*
X1095502Y-1932686D01*
X1102360Y-1936242D01*
X1116329Y-1936242D01*
X1123187Y-1932686D01*
X1130045Y-1925828D01*
X1133602Y-1918970D01*
X1156462Y-1863344D02*
G01*
X1156462Y-1936242D01*
X1156462Y-1936242D02*
G01*
X1197863Y-1936242D01*
X1220723Y-1863344D02*
G01*
X1220723Y-1936242D01*
X1269237Y-1863344D02*
G01*
X1220723Y-1911857D01*
X1238250Y-1894586D02*
G01*
X1269237Y-1936242D01*
X1354581Y-1849628D02*
G01*
X1292097Y-1960371D01*
X1377442Y-1863344D02*
G01*
X1377442Y-1936242D01*
X1421129Y-1863344D02*
G01*
X1414018Y-1866900D01*
X1407160Y-1873757D01*
X1403604Y-1880870D01*
X1400302Y-1891029D01*
X1400302Y-1908555D01*
X1403604Y-1918970D01*
X1407160Y-1925828D01*
X1414018Y-1932686D01*
X1421129Y-1936242D01*
X1434845Y-1936242D01*
X1441704Y-1932686D01*
X1448815Y-1925828D01*
X1452118Y-1918970D01*
X1455673Y-1908555D01*
X1455673Y-1891029D01*
X1452118Y-1880870D01*
X1448815Y-1873757D01*
X1441704Y-1866900D01*
X1434845Y-1863344D01*
X1421129Y-1863344D01*
X1478534Y-1877313D02*
G01*
X1485392Y-1873757D01*
X1495805Y-1863344D01*
X1495805Y-1936242D01*
X1522221Y-1880870D02*
G01*
X1522221Y-1877313D01*
X1525523Y-1870455D01*
X1529079Y-1866900D01*
X1535937Y-1863344D01*
X1549907Y-1863344D01*
X1556765Y-1866900D01*
X1560321Y-1870455D01*
X1563623Y-1877313D01*
X1563623Y-1884171D01*
X1560321Y-1891029D01*
X1553210Y-1901444D01*
X1518665Y-1936242D01*
X1567179Y-1936242D01*
X1003300Y-2117344D02*
G01*
X1003300Y-2190242D01*
X1003300Y-2117344D02*
G01*
X1034542Y-2117344D01*
X1044955Y-2120900D01*
X1048257Y-2124455D01*
X1051813Y-2131313D01*
X1051813Y-2138171D01*
X1048257Y-2145029D01*
X1044955Y-2148586D01*
X1034542Y-2152142D01*
X1003300Y-2152142D02*
G01*
X1034542Y-2152142D01*
X1044955Y-2155444D01*
X1048257Y-2159000D01*
X1051813Y-2165857D01*
X1051813Y-2176271D01*
X1048257Y-2183129D01*
X1044955Y-2186686D01*
X1034542Y-2190242D01*
X1003300Y-2190242D01*
X1126489Y-2134870D02*
G01*
X1123187Y-2127757D01*
X1116329Y-2120900D01*
X1109218Y-2117344D01*
X1095502Y-2117344D01*
X1088389Y-2120900D01*
X1081531Y-2127757D01*
X1078229Y-2134870D01*
X1074673Y-2145029D01*
X1074673Y-2162555D01*
X1078229Y-2172970D01*
X1081531Y-2179828D01*
X1088389Y-2186686D01*
X1095502Y-2190242D01*
X1109218Y-2190242D01*
X1116329Y-2186686D01*
X1123187Y-2179828D01*
X1126489Y-2172970D01*
X1149350Y-2117344D02*
G01*
X1149350Y-2190242D01*
X1149350Y-2190242D02*
G01*
X1191005Y-2190242D01*
X1213865Y-2117344D02*
G01*
X1213865Y-2190242D01*
X1262379Y-2117344D02*
G01*
X1213865Y-2165857D01*
X1231137Y-2148586D02*
G01*
X1262379Y-2190242D01*
X1347470Y-2103628D02*
G01*
X1285239Y-2214371D01*
X1370329Y-2117344D02*
G01*
X1370329Y-2190242D01*
X1414018Y-2117344D02*
G01*
X1407160Y-2120900D01*
X1400302Y-2127757D01*
X1396745Y-2134870D01*
X1393189Y-2145029D01*
X1393189Y-2162555D01*
X1396745Y-2172970D01*
X1400302Y-2179828D01*
X1407160Y-2186686D01*
X1414018Y-2190242D01*
X1427987Y-2190242D01*
X1434845Y-2186686D01*
X1441704Y-2179828D01*
X1445260Y-2172970D01*
X1448815Y-2162555D01*
X1448815Y-2145029D01*
X1445260Y-2134870D01*
X1441704Y-2127757D01*
X1434845Y-2120900D01*
X1427987Y-2117344D01*
X1414018Y-2117344D01*
X1471676Y-2131313D02*
G01*
X1478534Y-2127757D01*
X1488947Y-2117344D01*
X1488947Y-2190242D01*
X1546352Y-2117344D02*
G01*
X1511807Y-2165857D01*
X1563623Y-2165857D01*
X1546352Y-2117344D02*
G01*
X1546352Y-2190242D01*
X1051813Y-2381757D02*
G01*
X1044955Y-2374900D01*
X1034542Y-2371344D01*
X1020571Y-2371344D01*
X1010157Y-2374900D01*
X1003300Y-2381757D01*
X1003300Y-2388870D01*
X1006855Y-2395728D01*
X1010157Y-2399029D01*
X1017270Y-2402586D01*
X1037844Y-2409444D01*
X1044955Y-2413000D01*
X1048257Y-2416555D01*
X1051813Y-2423413D01*
X1051813Y-2433828D01*
X1044955Y-2440686D01*
X1034542Y-2444242D01*
X1020571Y-2444242D01*
X1010157Y-2440686D01*
X1003300Y-2433828D01*
X1126489Y-2388870D02*
G01*
X1123187Y-2381757D01*
X1116329Y-2374900D01*
X1109218Y-2371344D01*
X1095502Y-2371344D01*
X1088389Y-2374900D01*
X1081531Y-2381757D01*
X1078229Y-2388870D01*
X1074673Y-2399029D01*
X1074673Y-2416555D01*
X1078229Y-2426970D01*
X1081531Y-2433828D01*
X1088389Y-2440686D01*
X1095502Y-2444242D01*
X1109218Y-2444242D01*
X1116329Y-2440686D01*
X1123187Y-2433828D01*
X1126489Y-2426970D01*
X1149350Y-2371344D02*
G01*
X1149350Y-2444242D01*
X1149350Y-2444242D02*
G01*
X1191005Y-2444242D01*
X1276350Y-2357628D02*
G01*
X1213865Y-2468371D01*
X1299210Y-2371344D02*
G01*
X1299210Y-2444242D01*
X1342644Y-2371344D02*
G01*
X1335786Y-2374900D01*
X1328928Y-2381757D01*
X1325371Y-2388870D01*
X1322070Y-2399029D01*
X1322070Y-2416555D01*
X1325371Y-2426970D01*
X1328928Y-2433828D01*
X1335786Y-2440686D01*
X1342644Y-2444242D01*
X1356613Y-2444242D01*
X1363471Y-2440686D01*
X1370329Y-2433828D01*
X1373886Y-2426970D01*
X1377442Y-2416555D01*
X1377442Y-2399029D01*
X1373886Y-2388870D01*
X1370329Y-2381757D01*
X1363471Y-2374900D01*
X1356613Y-2371344D01*
X1342644Y-2371344D01*
X1403604Y-2388870D02*
G01*
X1403604Y-2385313D01*
X1407160Y-2378455D01*
X1410715Y-2374900D01*
X1417573Y-2371344D01*
X1431289Y-2371344D01*
X1438402Y-2374900D01*
X1441704Y-2378455D01*
X1445260Y-2385313D01*
X1445260Y-2392171D01*
X1441704Y-2399029D01*
X1434845Y-2409444D01*
X1400302Y-2444242D01*
X1448815Y-2444242D01*
X1474978Y-2388870D02*
G01*
X1474978Y-2385313D01*
X1478534Y-2378455D01*
X1482089Y-2374900D01*
X1488947Y-2371344D01*
X1502663Y-2371344D01*
X1509776Y-2374900D01*
X1513078Y-2378455D01*
X1516634Y-2385313D01*
X1516634Y-2392171D01*
X1513078Y-2399029D01*
X1506220Y-2409444D01*
X1471676Y-2444242D01*
X1520189Y-2444242D01*
X1051813Y-2635757D02*
G01*
X1044955Y-2628900D01*
X1034542Y-2625344D01*
X1020571Y-2625344D01*
X1010157Y-2628900D01*
X1003300Y-2635757D01*
X1003300Y-2642870D01*
X1006855Y-2649728D01*
X1010157Y-2653029D01*
X1017270Y-2656586D01*
X1037844Y-2663444D01*
X1044955Y-2667000D01*
X1048257Y-2670555D01*
X1051813Y-2677413D01*
X1051813Y-2687828D01*
X1044955Y-2694686D01*
X1034542Y-2698242D01*
X1020571Y-2698242D01*
X1010157Y-2694686D01*
X1003300Y-2687828D01*
X1074673Y-2625344D02*
G01*
X1074673Y-2698242D01*
X1074673Y-2625344D02*
G01*
X1098804Y-2625344D01*
X1109218Y-2628900D01*
X1116329Y-2635757D01*
X1119631Y-2642870D01*
X1123187Y-2653029D01*
X1123187Y-2670555D01*
X1119631Y-2680970D01*
X1116329Y-2687828D01*
X1109218Y-2694686D01*
X1098804Y-2698242D01*
X1074673Y-2698242D01*
X1173734Y-2625344D02*
G01*
X1146047Y-2698242D01*
X1173734Y-2625344D02*
G01*
X1201420Y-2698242D01*
X1156462Y-2673857D02*
G01*
X1191005Y-2673857D01*
X1286510Y-2611628D02*
G01*
X1224279Y-2722371D01*
X1309370Y-2625344D02*
G01*
X1309370Y-2698242D01*
X1353057Y-2625344D02*
G01*
X1346200Y-2628900D01*
X1339342Y-2635757D01*
X1335786Y-2642870D01*
X1332229Y-2653029D01*
X1332229Y-2670555D01*
X1335786Y-2680970D01*
X1339342Y-2687828D01*
X1346200Y-2694686D01*
X1353057Y-2698242D01*
X1367028Y-2698242D01*
X1373886Y-2694686D01*
X1380744Y-2687828D01*
X1384300Y-2680970D01*
X1387855Y-2670555D01*
X1387855Y-2653029D01*
X1384300Y-2642870D01*
X1380744Y-2635757D01*
X1373886Y-2628900D01*
X1367028Y-2625344D01*
X1353057Y-2625344D01*
X1414018Y-2642870D02*
G01*
X1414018Y-2639313D01*
X1417573Y-2632455D01*
X1421129Y-2628900D01*
X1427987Y-2625344D01*
X1441704Y-2625344D01*
X1448815Y-2628900D01*
X1452118Y-2632455D01*
X1455673Y-2639313D01*
X1455673Y-2646171D01*
X1452118Y-2653029D01*
X1445260Y-2663444D01*
X1410715Y-2698242D01*
X1459229Y-2698242D01*
X1482089Y-2639313D02*
G01*
X1488947Y-2635757D01*
X1499362Y-2625344D01*
X1499362Y-2698242D01*
X1003300Y-2879344D02*
G01*
X1003300Y-2952242D01*
X1003300Y-2879344D02*
G01*
X1030986Y-2952242D01*
X1058671Y-2879344D02*
G01*
X1030986Y-2952242D01*
X1058671Y-2879344D02*
G01*
X1058671Y-2952242D01*
X1081531Y-2879344D02*
G01*
X1081531Y-2952242D01*
X1152905Y-2889757D02*
G01*
X1146047Y-2882900D01*
X1135634Y-2879344D01*
X1121663Y-2879344D01*
X1111250Y-2882900D01*
X1104392Y-2889757D01*
X1104392Y-2896870D01*
X1107947Y-2903728D01*
X1111250Y-2907029D01*
X1118362Y-2910586D01*
X1139189Y-2917444D01*
X1146047Y-2921000D01*
X1149350Y-2924555D01*
X1152905Y-2931413D01*
X1152905Y-2941828D01*
X1146047Y-2948686D01*
X1135634Y-2952242D01*
X1121663Y-2952242D01*
X1111250Y-2948686D01*
X1104392Y-2941828D01*
X1196594Y-2879344D02*
G01*
X1189736Y-2882900D01*
X1182623Y-2889757D01*
X1179321Y-2896870D01*
X1175765Y-2907029D01*
X1175765Y-2924555D01*
X1179321Y-2934970D01*
X1182623Y-2941828D01*
X1189736Y-2948686D01*
X1196594Y-2952242D01*
X1210310Y-2952242D01*
X1217421Y-2948686D01*
X1224279Y-2941828D01*
X1227836Y-2934970D01*
X1231137Y-2924555D01*
X1231137Y-2907029D01*
X1227836Y-2896870D01*
X1224279Y-2889757D01*
X1217421Y-2882900D01*
X1210310Y-2879344D01*
X1196594Y-2879344D01*
X1003300Y-3133344D02*
G01*
X1003300Y-3206242D01*
X1003300Y-3133344D02*
G01*
X1030986Y-3206242D01*
X1058671Y-3133344D02*
G01*
X1030986Y-3206242D01*
X1058671Y-3133344D02*
G01*
X1058671Y-3206242D01*
X1102360Y-3133344D02*
G01*
X1095502Y-3136900D01*
X1088389Y-3143757D01*
X1085087Y-3150870D01*
X1081531Y-3161029D01*
X1081531Y-3178555D01*
X1085087Y-3188970D01*
X1088389Y-3195828D01*
X1095502Y-3202686D01*
X1102360Y-3206242D01*
X1116329Y-3206242D01*
X1123187Y-3202686D01*
X1130045Y-3195828D01*
X1133602Y-3188970D01*
X1136904Y-3178555D01*
X1136904Y-3161029D01*
X1133602Y-3150870D01*
X1130045Y-3143757D01*
X1123187Y-3136900D01*
X1116329Y-3133344D01*
X1102360Y-3133344D01*
X1208278Y-3143757D02*
G01*
X1201420Y-3136900D01*
X1191005Y-3133344D01*
X1177289Y-3133344D01*
X1166876Y-3136900D01*
X1159763Y-3143757D01*
X1159763Y-3150870D01*
X1163320Y-3157728D01*
X1166876Y-3161029D01*
X1173734Y-3164586D01*
X1194562Y-3171444D01*
X1201420Y-3175000D01*
X1204976Y-3178555D01*
X1208278Y-3185413D01*
X1208278Y-3195828D01*
X1201420Y-3202686D01*
X1191005Y-3206242D01*
X1177289Y-3206242D01*
X1166876Y-3202686D01*
X1159763Y-3195828D01*
X1231137Y-3133344D02*
G01*
X1231137Y-3206242D01*
X1051813Y-3397757D02*
G01*
X1044955Y-3390900D01*
X1034542Y-3387344D01*
X1020571Y-3387344D01*
X1010157Y-3390900D01*
X1003300Y-3397757D01*
X1003300Y-3404870D01*
X1006855Y-3411728D01*
X1010157Y-3415029D01*
X1017270Y-3418586D01*
X1037844Y-3425444D01*
X1044955Y-3429000D01*
X1048257Y-3432555D01*
X1051813Y-3439413D01*
X1051813Y-3449828D01*
X1044955Y-3456686D01*
X1034542Y-3460242D01*
X1020571Y-3460242D01*
X1010157Y-3456686D01*
X1003300Y-3449828D01*
X1126489Y-3404870D02*
G01*
X1123187Y-3397757D01*
X1116329Y-3390900D01*
X1109218Y-3387344D01*
X1095502Y-3387344D01*
X1088389Y-3390900D01*
X1081531Y-3397757D01*
X1078229Y-3404870D01*
X1074673Y-3415029D01*
X1074673Y-3432555D01*
X1078229Y-3442970D01*
X1081531Y-3449828D01*
X1088389Y-3456686D01*
X1095502Y-3460242D01*
X1109218Y-3460242D01*
X1116329Y-3456686D01*
X1123187Y-3449828D01*
X1126489Y-3442970D01*
X1149350Y-3387344D02*
G01*
X1149350Y-3460242D01*
X1197863Y-3387344D02*
G01*
X1149350Y-3435857D01*
X1166876Y-3418586D02*
G01*
X1197863Y-3460242D01*
X1003300Y-3641344D02*
G01*
X1003300Y-3714242D01*
X1046987Y-3641344D02*
G01*
X1040129Y-3644900D01*
X1033018Y-3651757D01*
X1029715Y-3658870D01*
X1026160Y-3669029D01*
X1026160Y-3686555D01*
X1029715Y-3696970D01*
X1033018Y-3703828D01*
X1040129Y-3710686D01*
X1046987Y-3714242D01*
X1060704Y-3714242D01*
X1067815Y-3710686D01*
X1074673Y-3703828D01*
X1078229Y-3696970D01*
X1081531Y-3686555D01*
X1081531Y-3669029D01*
X1078229Y-3658870D01*
X1074673Y-3651757D01*
X1067815Y-3644900D01*
X1060704Y-3641344D01*
X1046987Y-3641344D01*
X1125220Y-3641344D02*
G01*
X1114805Y-3644900D01*
X1107947Y-3655313D01*
X1104392Y-3672586D01*
X1104392Y-3683000D01*
X1107947Y-3700271D01*
X1114805Y-3710686D01*
X1125220Y-3714242D01*
X1132078Y-3714242D01*
X1142492Y-3710686D01*
X1149350Y-3700271D01*
X1152905Y-3683000D01*
X1152905Y-3672586D01*
X1149350Y-3655313D01*
X1142492Y-3644900D01*
X1132078Y-3641344D01*
X1125220Y-3641344D01*
X1003300Y-3895344D02*
G01*
X1003300Y-3968242D01*
X1003300Y-3895344D02*
G01*
X1051813Y-3968242D01*
X1051813Y-3895344D02*
G01*
X1051813Y-3968242D01*
X1126489Y-3912870D02*
G01*
X1123187Y-3905757D01*
X1116329Y-3898900D01*
X1109218Y-3895344D01*
X1095502Y-3895344D01*
X1088389Y-3898900D01*
X1081531Y-3905757D01*
X1078229Y-3912870D01*
X1074673Y-3923029D01*
X1074673Y-3940555D01*
X1078229Y-3950970D01*
X1081531Y-3957828D01*
X1088389Y-3964686D01*
X1095502Y-3968242D01*
X1109218Y-3968242D01*
X1116329Y-3964686D01*
X1123187Y-3957828D01*
X1126489Y-3950970D01*
X1030986Y-4403344D02*
G01*
X1003300Y-4476242D01*
X1030986Y-4403344D02*
G01*
X1058671Y-4476242D01*
X1013713Y-4451857D02*
G01*
X1048257Y-4451857D01*
X1088389Y-4403344D02*
G01*
X1126489Y-4403344D01*
X1105915Y-4431029D01*
X1116329Y-4431029D01*
X1123187Y-4434586D01*
X1126489Y-4438142D01*
X1130045Y-4448555D01*
X1130045Y-4455413D01*
X1126489Y-4465828D01*
X1119631Y-4472686D01*
X1109218Y-4476242D01*
X1098804Y-4476242D01*
X1088389Y-4472686D01*
X1085087Y-4469129D01*
X1081531Y-4462271D01*
X1030986Y-4657344D02*
G01*
X1003300Y-4730242D01*
X1030986Y-4657344D02*
G01*
X1058671Y-4730242D01*
X1013713Y-4705857D02*
G01*
X1048257Y-4705857D01*
X1085087Y-4674870D02*
G01*
X1085087Y-4671313D01*
X1088389Y-4664455D01*
X1091945Y-4660900D01*
X1098804Y-4657344D01*
X1112773Y-4657344D01*
X1119631Y-4660900D01*
X1123187Y-4664455D01*
X1126489Y-4671313D01*
X1126489Y-4678171D01*
X1123187Y-4685029D01*
X1116329Y-4695444D01*
X1081531Y-4730242D01*
X1130045Y-4730242D01*
X1030986Y-4911344D02*
G01*
X1003300Y-4984242D01*
X1030986Y-4911344D02*
G01*
X1058671Y-4984242D01*
X1013713Y-4959857D02*
G01*
X1048257Y-4959857D01*
X1081531Y-4925313D02*
G01*
X1088389Y-4921757D01*
X1098804Y-4911344D01*
X1098804Y-4984242D01*
X3084829Y-4911344D02*
G01*
X3084829Y-4984242D01*
X3060700Y-4911344D02*
G01*
X3109213Y-4911344D01*
X3132074Y-4911344D02*
G01*
X3180588Y-4984242D01*
X3180588Y-4911344D02*
G01*
X3132074Y-4984242D01*
X3203447Y-4911344D02*
G01*
X3203447Y-4984242D01*
X3203447Y-4911344D02*
G01*
X3227577Y-4911344D01*
X3237991Y-4914900D01*
X3244850Y-4921757D01*
X3248406Y-4928870D01*
X3251961Y-4939029D01*
X3251961Y-4956555D01*
X3248406Y-4966970D01*
X3244850Y-4973828D01*
X3237991Y-4980686D01*
X3227577Y-4984242D01*
X3203447Y-4984242D01*
X2501900Y-377189D02*
G01*
X2501900Y-472694D01*
X2501900Y-377189D02*
G01*
X2542793Y-377189D01*
X2556509Y-381762D01*
X2561081Y-386334D01*
X2565654Y-395478D01*
X2565654Y-404621D01*
X2561081Y-413512D01*
X2556509Y-418084D01*
X2542793Y-422655D01*
X2501900Y-422655D02*
G01*
X2542793Y-422655D01*
X2556509Y-427228D01*
X2561081Y-431800D01*
X2565654Y-440944D01*
X2565654Y-454405D01*
X2561081Y-463550D01*
X2556509Y-468121D01*
X2542793Y-472694D01*
X2501900Y-472694D01*
X2631947Y-377189D02*
G01*
X2595625Y-472694D01*
X2631947Y-377189D02*
G01*
X2668270Y-472694D01*
X2609088Y-440944D02*
G01*
X2654554Y-440944D01*
X2729991Y-377189D02*
G01*
X2729991Y-472694D01*
X2698241Y-377189D02*
G01*
X2761995Y-377189D01*
X2823718Y-377189D02*
G01*
X2823718Y-472694D01*
X2791968Y-377189D02*
G01*
X2855468Y-377189D01*
X1003300Y-1101344D02*
G01*
X1003300Y-1174242D01*
X1003300Y-1174242D02*
G01*
X1044955Y-1174242D01*
X1067815Y-1101344D02*
G01*
X1067815Y-1174242D01*
X1067815Y-1101344D02*
G01*
X1098804Y-1101344D01*
X1109218Y-1104900D01*
X1112773Y-1108455D01*
X1116329Y-1115313D01*
X1116329Y-1122171D01*
X1112773Y-1129029D01*
X1109218Y-1132586D01*
X1098804Y-1136142D01*
X1067815Y-1136142D01*
X1091945Y-1136142D02*
G01*
X1116329Y-1174242D01*
X1191005Y-1118870D02*
G01*
X1187450Y-1111757D01*
X1180592Y-1104900D01*
X1173734Y-1101344D01*
X1159763Y-1101344D01*
X1152905Y-1104900D01*
X1146047Y-1111757D01*
X1142492Y-1118870D01*
X1139189Y-1129029D01*
X1139189Y-1146555D01*
X1142492Y-1156970D01*
X1146047Y-1163828D01*
X1152905Y-1170686D01*
X1159763Y-1174242D01*
X1173734Y-1174242D01*
X1180592Y-1170686D01*
X1187450Y-1163828D01*
X1191005Y-1156970D01*
X1213865Y-1101344D02*
G01*
X1213865Y-1174242D01*
X1262379Y-1101344D02*
G01*
X1213865Y-1149857D01*
X1231137Y-1132586D02*
G01*
X1262379Y-1174242D01*
X1347470Y-1087628D02*
G01*
X1285239Y-1198371D01*
X1370329Y-1101344D02*
G01*
X1370329Y-1174242D01*
X1414018Y-1101344D02*
G01*
X1407160Y-1104900D01*
X1400302Y-1111757D01*
X1396745Y-1118870D01*
X1393189Y-1129029D01*
X1393189Y-1146555D01*
X1396745Y-1156970D01*
X1400302Y-1163828D01*
X1407160Y-1170686D01*
X1414018Y-1174242D01*
X1427987Y-1174242D01*
X1434845Y-1170686D01*
X1441704Y-1163828D01*
X1445260Y-1156970D01*
X1448815Y-1146555D01*
X1448815Y-1129029D01*
X1445260Y-1118870D01*
X1441704Y-1111757D01*
X1434845Y-1104900D01*
X1427987Y-1101344D01*
X1414018Y-1101344D01*
X1471676Y-1115313D02*
G01*
X1478534Y-1111757D01*
X1488947Y-1101344D01*
X1488947Y-1174242D01*
X1560321Y-1101344D02*
G01*
X1525523Y-1174242D01*
X1511807Y-1101344D02*
G01*
X1560321Y-1101344D01*
X1003300Y-847344D02*
G01*
X1003300Y-920242D01*
X1003300Y-847344D02*
G01*
X1034542Y-847344D01*
X1044955Y-850900D01*
X1048257Y-854455D01*
X1051813Y-861313D01*
X1051813Y-868171D01*
X1048257Y-875029D01*
X1044955Y-878586D01*
X1034542Y-882142D01*
X1003300Y-882142D01*
X1027429Y-882142D02*
G01*
X1051813Y-920242D01*
X1123187Y-857757D02*
G01*
X1116329Y-850900D01*
X1105915Y-847344D01*
X1091945Y-847344D01*
X1081531Y-850900D01*
X1074673Y-857757D01*
X1074673Y-864870D01*
X1078229Y-871728D01*
X1081531Y-875029D01*
X1088389Y-878586D01*
X1109218Y-885444D01*
X1116329Y-889000D01*
X1119631Y-892555D01*
X1123187Y-899413D01*
X1123187Y-909828D01*
X1116329Y-916686D01*
X1105915Y-920242D01*
X1091945Y-920242D01*
X1081531Y-916686D01*
X1074673Y-909828D01*
X1170178Y-847344D02*
G01*
X1170178Y-920242D01*
X1146047Y-847344D02*
G01*
X1194562Y-847344D01*
X1030986Y-5165344D02*
G01*
X1003300Y-5238242D01*
X1030986Y-5165344D02*
G01*
X1058671Y-5238242D01*
X1013713Y-5213857D02*
G01*
X1048257Y-5213857D01*
X1102360Y-5165344D02*
G01*
X1091945Y-5168900D01*
X1085087Y-5179313D01*
X1081531Y-5196586D01*
X1081531Y-5207000D01*
X1085087Y-5224271D01*
X1091945Y-5234686D01*
X1102360Y-5238242D01*
X1109218Y-5238242D01*
X1119631Y-5234686D01*
X1126489Y-5224271D01*
X1130045Y-5207000D01*
X1130045Y-5196586D01*
X1126489Y-5179313D01*
X1119631Y-5168900D01*
X1109218Y-5165344D01*
X1102360Y-5165344D01*
X3060700Y-5165344D02*
G01*
X3060700Y-5238242D01*
X3060700Y-5165344D02*
G01*
X3091941Y-5165344D01*
X3102356Y-5168900D01*
X3105658Y-5172455D01*
X3109213Y-5179313D01*
X3109213Y-5186171D01*
X3105658Y-5193029D01*
X3102356Y-5196586D01*
X3091941Y-5200142D01*
X3060700Y-5200142D01*
X3084829Y-5200142D02*
G01*
X3109213Y-5238242D01*
X3132074Y-5165344D02*
G01*
X3180588Y-5238242D01*
X3180588Y-5165344D02*
G01*
X3132074Y-5238242D01*
X3203447Y-5165344D02*
G01*
X3203447Y-5238242D01*
X3203447Y-5165344D02*
G01*
X3227577Y-5165344D01*
X3237991Y-5168900D01*
X3244850Y-5175757D01*
X3248406Y-5182870D01*
X3251961Y-5193029D01*
X3251961Y-5210555D01*
X3248406Y-5220970D01*
X3244850Y-5227828D01*
X3237991Y-5234686D01*
X3227577Y-5238242D01*
X3203447Y-5238242D01*
X3042158Y-1101344D02*
G01*
X3080258Y-1101344D01*
X3059429Y-1129029D01*
X3069843Y-1129029D01*
X3076956Y-1132586D01*
X3080258Y-1136142D01*
X3083813Y-1146555D01*
X3083813Y-1153413D01*
X3080258Y-1163828D01*
X3073400Y-1170686D01*
X3062986Y-1174242D01*
X3052572Y-1174242D01*
X3042158Y-1170686D01*
X3038856Y-1167129D01*
X3035300Y-1160271D01*
X3106674Y-1101344D02*
G01*
X3134359Y-1174242D01*
X3162045Y-1101344D02*
G01*
X3134359Y-1174242D01*
X3191763Y-1101344D02*
G01*
X3229863Y-1101344D01*
X3209290Y-1129029D01*
X3219450Y-1129029D01*
X3226561Y-1132586D01*
X3229863Y-1136142D01*
X3233420Y-1146555D01*
X3233420Y-1153413D01*
X3229863Y-1163828D01*
X3223006Y-1170686D01*
X3212591Y-1174242D01*
X3202177Y-1174242D01*
X3191763Y-1170686D01*
X3188461Y-1167129D01*
X3184906Y-1160271D01*
X3035300Y-847344D02*
G01*
X3062986Y-920242D01*
X3090672Y-847344D02*
G01*
X3062986Y-920242D01*
X3165602Y-864870D02*
G01*
X3162045Y-857757D01*
X3155188Y-850900D01*
X3148329Y-847344D01*
X3134359Y-847344D01*
X3127502Y-850900D01*
X3120390Y-857757D01*
X3117088Y-864870D01*
X3113531Y-875029D01*
X3113531Y-892555D01*
X3117088Y-902970D01*
X3120390Y-909828D01*
X3127502Y-916686D01*
X3134359Y-920242D01*
X3148329Y-920242D01*
X3155188Y-916686D01*
X3162045Y-909828D01*
X3165602Y-902970D01*
X3240277Y-864870D02*
G01*
X3236975Y-857757D01*
X3229863Y-850900D01*
X3223006Y-847344D01*
X3209290Y-847344D01*
X3202177Y-850900D01*
X3195320Y-857757D01*
X3191763Y-864870D01*
X3188461Y-875029D01*
X3188461Y-892555D01*
X3191763Y-902970D01*
X3195320Y-909828D01*
X3202177Y-916686D01*
X3209290Y-920242D01*
X3223006Y-920242D01*
X3229863Y-916686D01*
X3236975Y-909828D01*
X3240277Y-902970D01*
X2219197Y-1041400D02*
G01*
X2047240Y-1041400D01*
X2219197Y-1041400D02*
G01*
X2219197Y-1147826D01*
X2137156Y-1041400D02*
G01*
X2137156Y-1106931D01*
X2219197Y-1201673D02*
G01*
X2210815Y-1210055D01*
X2219197Y-1218184D01*
X2227325Y-1210055D01*
X2219197Y-1201673D01*
X2161793Y-1210055D02*
G01*
X2047240Y-1210055D01*
X2161793Y-1272031D02*
G01*
X2047240Y-1272031D01*
X2112772Y-1272031D02*
G01*
X2137156Y-1280413D01*
X2153665Y-1296670D01*
X2161793Y-1312926D01*
X2161793Y-1337563D01*
X2112772Y-1391665D02*
G01*
X2112772Y-1489710D01*
X2129027Y-1489710D01*
X2145538Y-1481581D01*
X2153665Y-1473454D01*
X2161793Y-1456944D01*
X2161793Y-1432560D01*
X2153665Y-1416050D01*
X2137156Y-1399794D01*
X2112772Y-1391665D01*
X2096261Y-1391665D01*
X2071877Y-1399794D01*
X2055368Y-1416050D01*
X2047240Y-1432560D01*
X2047240Y-1456944D01*
X2055368Y-1473454D01*
X2071877Y-1489710D01*
X2219197Y-1543812D02*
G01*
X2047240Y-1543812D01*
X2219197Y-1543812D02*
G01*
X2219197Y-1617471D01*
X2210815Y-1641855D01*
X2202688Y-1650237D01*
X2186431Y-1658365D01*
X2169922Y-1658365D01*
X2153665Y-1650237D01*
X2145538Y-1641855D01*
X2137156Y-1617471D01*
X2137156Y-1543812D02*
G01*
X2137156Y-1617471D01*
X2129027Y-1641855D01*
X2120900Y-1650237D01*
X2104643Y-1658365D01*
X2080006Y-1658365D01*
X2063750Y-1650237D01*
X2055368Y-1641855D01*
X2047240Y-1617471D01*
X2047240Y-1543812D01*
X2112772Y-1712213D02*
G01*
X2112772Y-1810512D01*
X2129027Y-1810512D01*
X2145538Y-1802384D01*
X2153665Y-1794002D01*
X2161793Y-1777745D01*
X2161793Y-1753107D01*
X2153665Y-1736852D01*
X2137156Y-1720595D01*
X2112772Y-1712213D01*
X2096261Y-1712213D01*
X2071877Y-1720595D01*
X2055368Y-1736852D01*
X2047240Y-1753107D01*
X2047240Y-1777745D01*
X2055368Y-1794002D01*
X2071877Y-1810512D01*
X2112772Y-1864613D02*
G01*
X2112772Y-1962657D01*
X2129027Y-1962657D01*
X2145538Y-1954529D01*
X2153665Y-1946402D01*
X2161793Y-1929892D01*
X2161793Y-1905507D01*
X2153665Y-1888997D01*
X2137156Y-1872742D01*
X2112772Y-1864613D01*
X2096261Y-1864613D01*
X2071877Y-1872742D01*
X2055368Y-1888997D01*
X2047240Y-1905507D01*
X2047240Y-1929892D01*
X2055368Y-1946402D01*
X2071877Y-1962657D01*
X2219197Y-2041144D02*
G01*
X2080006Y-2041144D01*
X2055368Y-2049271D01*
X2047240Y-2065781D01*
X2047240Y-2082037D01*
X2161793Y-2016760D02*
G01*
X2161793Y-2073910D01*
X2219197Y-2136139D02*
G01*
X2047240Y-2136139D01*
X2112772Y-2190242D02*
G01*
X2112772Y-2288286D01*
X2129027Y-2288286D01*
X2145538Y-2280157D01*
X2153665Y-2272029D01*
X2161793Y-2255520D01*
X2161793Y-2231136D01*
X2153665Y-2214626D01*
X2137156Y-2198370D01*
X2112772Y-2190242D01*
X2096261Y-2190242D01*
X2071877Y-2198370D01*
X2055368Y-2214626D01*
X2047240Y-2231136D01*
X2047240Y-2255520D01*
X2055368Y-2272029D01*
X2071877Y-2288286D01*
X2219197Y-2468371D02*
G01*
X2047240Y-2468371D01*
X2219197Y-2468371D02*
G01*
X2219197Y-2574544D01*
X2137156Y-2468371D02*
G01*
X2137156Y-2533650D01*
X2047240Y-2468371D02*
G01*
X2047240Y-2574544D01*
X2194559Y-2743200D02*
G01*
X2210815Y-2726944D01*
X2219197Y-2702305D01*
X2219197Y-2669539D01*
X2210815Y-2645155D01*
X2194559Y-2628645D01*
X2178050Y-2628645D01*
X2161793Y-2636773D01*
X2153665Y-2645155D01*
X2145538Y-2661412D01*
X2129027Y-2710434D01*
X2120900Y-2726944D01*
X2112772Y-2735071D01*
X2096261Y-2743200D01*
X2071877Y-2743200D01*
X2055368Y-2726944D01*
X2047240Y-2702305D01*
X2047240Y-2669539D01*
X2055368Y-2645155D01*
X2071877Y-2628645D01*
X2219197Y-2797302D02*
G01*
X2047240Y-2797302D01*
X2219197Y-2797302D02*
G01*
X2219197Y-2870962D01*
X2210815Y-2895345D01*
X2202688Y-2903473D01*
X2186431Y-2911855D01*
X2161793Y-2911855D01*
X2145538Y-2903473D01*
X2137156Y-2895345D01*
X2129027Y-2870962D01*
X2129027Y-2797302D01*
X2219197Y-2982213D02*
G01*
X2219197Y-3072129D01*
X2153665Y-3023107D01*
X2153665Y-3047492D01*
X2145538Y-3064002D01*
X2137156Y-3072129D01*
X2112772Y-3080257D01*
X2096261Y-3080257D01*
X2071877Y-3072129D01*
X2055368Y-3055873D01*
X2047240Y-3031236D01*
X2047240Y-3006597D01*
X2055368Y-2982213D01*
X2063750Y-2973831D01*
X2080006Y-2965704D01*
X2178050Y-3142487D02*
G01*
X2186431Y-3142487D01*
X2202688Y-3150615D01*
X2210815Y-3158744D01*
X2219197Y-3175254D01*
X2219197Y-3208020D01*
X2210815Y-3224276D01*
X2202688Y-3232404D01*
X2186431Y-3240786D01*
X2169922Y-3240786D01*
X2153665Y-3232404D01*
X2129027Y-3216147D01*
X2047240Y-3134360D01*
X2047240Y-3248913D01*
D10*
X2247900Y-9868915D02*
G01*
X2247900Y-9759950D01*
X2175256Y-9868915D02*
G01*
X2175256Y-9759950D01*
X2247900Y-9817100D02*
G01*
X2175256Y-9817100D01*
X2140965Y-9848087D02*
G01*
X2130552Y-9853421D01*
X2114804Y-9868915D01*
X2114804Y-9759950D01*
X3733800Y-5599684D02*
G01*
X3733800Y-5708650D01*
X3733800Y-5708650D02*
G01*
X3796029Y-5708650D01*
X3830320Y-5599684D02*
G01*
X3830320Y-5708650D01*
X3830320Y-5599684D02*
G01*
X3897884Y-5599684D01*
X3830320Y-5651500D02*
G01*
X3871975Y-5651500D01*
X3830320Y-5708650D02*
G01*
X3897884Y-5708650D01*
X3932174Y-5599684D02*
G01*
X3932174Y-5708650D01*
X3932174Y-5599684D02*
G01*
X3968750Y-5599684D01*
X3984243Y-5604763D01*
X3994658Y-5615178D01*
X3999738Y-5625592D01*
X4005072Y-5641339D01*
X4005072Y-5667247D01*
X3999738Y-5682742D01*
X3994658Y-5693155D01*
X3984243Y-5703570D01*
X3968750Y-5708650D01*
X3932174Y-5708650D01*
X4039361Y-5620512D02*
G01*
X4049775Y-5615178D01*
X4065270Y-5599684D01*
X4065270Y-5708650D01*
X1219200Y-9881615D02*
G01*
X1219200Y-9772650D01*
X1219200Y-9881615D02*
G01*
X1177544Y-9772650D01*
X1136142Y-9881615D02*
G01*
X1177544Y-9772650D01*
X1136142Y-9881615D02*
G01*
X1136142Y-9772650D01*
X1070610Y-9881615D02*
G01*
X1081023Y-9876536D01*
X1091437Y-9866121D01*
X1096518Y-9855708D01*
X1101852Y-9839960D01*
X1101852Y-9814052D01*
X1096518Y-9798558D01*
X1091437Y-9788144D01*
X1081023Y-9777729D01*
X1070610Y-9772650D01*
X1049781Y-9772650D01*
X1039368Y-9777729D01*
X1028954Y-9788144D01*
X1023873Y-9798558D01*
X1018539Y-9814052D01*
X1018539Y-9839960D01*
X1023873Y-9855708D01*
X1028954Y-9866121D01*
X1039368Y-9876536D01*
X1049781Y-9881615D01*
X1070610Y-9881615D01*
X947928Y-9881615D02*
G01*
X947928Y-9772650D01*
X984250Y-9881615D02*
G01*
X911605Y-9881615D01*
X846073Y-9881615D02*
G01*
X856487Y-9876536D01*
X866902Y-9866121D01*
X872236Y-9855708D01*
X877315Y-9839960D01*
X877315Y-9814052D01*
X872236Y-9798558D01*
X866902Y-9788144D01*
X856487Y-9777729D01*
X846073Y-9772650D01*
X825500Y-9772650D01*
X815086Y-9777729D01*
X804671Y-9788144D01*
X799337Y-9798558D01*
X794257Y-9814052D01*
X794257Y-9839960D01*
X799337Y-9855708D01*
X804671Y-9866121D01*
X815086Y-9876536D01*
X825500Y-9881615D01*
X846073Y-9881615D01*
X759968Y-9881615D02*
G01*
X759968Y-9772650D01*
X759968Y-9881615D02*
G01*
X713231Y-9881615D01*
X697484Y-9876536D01*
X692404Y-9871202D01*
X687070Y-9860787D01*
X687070Y-9850374D01*
X692404Y-9839960D01*
X697484Y-9834879D01*
X713231Y-9829800D01*
X759968Y-9829800D01*
X723645Y-9829800D02*
G01*
X687070Y-9772650D01*
X3478784Y-5067300D02*
G01*
X3587750Y-5067300D01*
X3478784Y-5067300D02*
G01*
X3478784Y-5020563D01*
X3483863Y-5005070D01*
X3489197Y-4999736D01*
X3499611Y-4994655D01*
X3510025Y-4994655D01*
X3520440Y-4999736D01*
X3525520Y-5005070D01*
X3530600Y-5020563D01*
X3530600Y-5067300D01*
X3530600Y-5030978D02*
G01*
X3587750Y-4994655D01*
X3499611Y-4960365D02*
G01*
X3494277Y-4949952D01*
X3478784Y-4934204D01*
X3587750Y-4934204D01*
X3236722Y-1139444D02*
G01*
X3247136Y-1129029D01*
X3252215Y-1113536D01*
X3252215Y-1092707D01*
X3247136Y-1077213D01*
X3236722Y-1066800D01*
X3226308Y-1066800D01*
X3215893Y-1071879D01*
X3210559Y-1077213D01*
X3205479Y-1087628D01*
X3195065Y-1118870D01*
X3189986Y-1129029D01*
X3184652Y-1134363D01*
X3174238Y-1139444D01*
X3158743Y-1139444D01*
X3148329Y-1129029D01*
X3143250Y-1113536D01*
X3143250Y-1092707D01*
X3148329Y-1077213D01*
X3158743Y-1066800D01*
X3231388Y-1173734D02*
G01*
X3236722Y-1184147D01*
X3252215Y-1199895D01*
X3143250Y-1199895D01*
X3238500Y-6183884D02*
G01*
X3238500Y-6261862D01*
X3243579Y-6277355D01*
X3253993Y-6287770D01*
X3269741Y-6292850D01*
X3280156Y-6292850D01*
X3295650Y-6287770D01*
X3306063Y-6277355D01*
X3311143Y-6261862D01*
X3311143Y-6183884D01*
X3345434Y-6204712D02*
G01*
X3355847Y-6199378D01*
X3371595Y-6183884D01*
X3371595Y-6292850D01*
D11*
X2730500Y-6421628D02*
G01*
X2767329Y-6518655D01*
X2804413Y-6421628D02*
G01*
X2767329Y-6518655D01*
X2834893Y-6421628D02*
G01*
X2834893Y-6518655D01*
X2865374Y-6421628D02*
G01*
X2865374Y-6518655D01*
X2865374Y-6421628D02*
G01*
X2929890Y-6518655D01*
X2929890Y-6421628D02*
G01*
X2929890Y-6518655D01*
X2730500Y-6675628D02*
G01*
X2767329Y-6772655D01*
X2804413Y-6675628D02*
G01*
X2767329Y-6772655D01*
X2834893Y-6675628D02*
G01*
X2834893Y-6772655D01*
X2865374Y-6675628D02*
G01*
X2865374Y-6772655D01*
X2865374Y-6675628D02*
G01*
X2929890Y-6772655D01*
X2929890Y-6675628D02*
G01*
X2929890Y-6772655D01*
X2799841Y-6952742D02*
G01*
X2795270Y-6943344D01*
X2785872Y-6934200D01*
X2776727Y-6929628D01*
X2758186Y-6929628D01*
X2749041Y-6934200D01*
X2739643Y-6943344D01*
X2735072Y-6952742D01*
X2730500Y-6966458D01*
X2730500Y-6989571D01*
X2735072Y-7003542D01*
X2739643Y-7012686D01*
X2749041Y-7021829D01*
X2758186Y-7026655D01*
X2776727Y-7026655D01*
X2785872Y-7021829D01*
X2795270Y-7012686D01*
X2799841Y-7003542D01*
X2799841Y-6989571D01*
X2776727Y-6989571D02*
G01*
X2799841Y-6989571D01*
X2830322Y-6929628D02*
G01*
X2830322Y-7026655D01*
X2830322Y-6929628D02*
G01*
X2894838Y-7026655D01*
X2894838Y-6929628D02*
G01*
X2894838Y-7026655D01*
X2925318Y-6929628D02*
G01*
X2925318Y-7026655D01*
X2925318Y-6929628D02*
G01*
X2957829Y-6929628D01*
X2971545Y-6934200D01*
X2980690Y-6943344D01*
X2985515Y-6952742D01*
X2990088Y-6966458D01*
X2990088Y-6989571D01*
X2985515Y-7003542D01*
X2980690Y-7012686D01*
X2971545Y-7021829D01*
X2957829Y-7026655D01*
X2925318Y-7026655D01*
X2799841Y-7206742D02*
G01*
X2795270Y-7197344D01*
X2785872Y-7188200D01*
X2776727Y-7183628D01*
X2758186Y-7183628D01*
X2749041Y-7188200D01*
X2739643Y-7197344D01*
X2735072Y-7206742D01*
X2730500Y-7220458D01*
X2730500Y-7243571D01*
X2735072Y-7257542D01*
X2739643Y-7266686D01*
X2749041Y-7275829D01*
X2758186Y-7280655D01*
X2776727Y-7280655D01*
X2785872Y-7275829D01*
X2795270Y-7266686D01*
X2799841Y-7257542D01*
X2799841Y-7243571D01*
X2776727Y-7243571D02*
G01*
X2799841Y-7243571D01*
X2830322Y-7183628D02*
G01*
X2830322Y-7280655D01*
X2830322Y-7183628D02*
G01*
X2894838Y-7280655D01*
X2894838Y-7183628D02*
G01*
X2894838Y-7280655D01*
X2925318Y-7183628D02*
G01*
X2925318Y-7280655D01*
X2925318Y-7183628D02*
G01*
X2957829Y-7183628D01*
X2971545Y-7188200D01*
X2980690Y-7197344D01*
X2985515Y-7206742D01*
X2990088Y-7220458D01*
X2990088Y-7243571D01*
X2985515Y-7257542D01*
X2980690Y-7266686D01*
X2971545Y-7275829D01*
X2957829Y-7280655D01*
X2925318Y-7280655D01*
X2758186Y-7437628D02*
G01*
X2749041Y-7442200D01*
X2739643Y-7451344D01*
X2735072Y-7460742D01*
X2730500Y-7474458D01*
X2730500Y-7497571D01*
X2735072Y-7511542D01*
X2739643Y-7520686D01*
X2749041Y-7529829D01*
X2758186Y-7534655D01*
X2776727Y-7534655D01*
X2785872Y-7529829D01*
X2795270Y-7520686D01*
X2799841Y-7511542D01*
X2804413Y-7497571D01*
X2804413Y-7474458D01*
X2799841Y-7460742D01*
X2795270Y-7451344D01*
X2785872Y-7442200D01*
X2776727Y-7437628D01*
X2758186Y-7437628D01*
X2834893Y-7437628D02*
G01*
X2834893Y-7534655D01*
X2834893Y-7437628D02*
G01*
X2899409Y-7534655D01*
X2899409Y-7437628D02*
G01*
X2899409Y-7534655D01*
X2758186Y-7691628D02*
G01*
X2749041Y-7696200D01*
X2739643Y-7705344D01*
X2735072Y-7714742D01*
X2730500Y-7728458D01*
X2730500Y-7751571D01*
X2735072Y-7765542D01*
X2739643Y-7774686D01*
X2749041Y-7783829D01*
X2758186Y-7788655D01*
X2776727Y-7788655D01*
X2785872Y-7783829D01*
X2795270Y-7774686D01*
X2799841Y-7765542D01*
X2804413Y-7751571D01*
X2804413Y-7728458D01*
X2799841Y-7714742D01*
X2795270Y-7705344D01*
X2785872Y-7696200D01*
X2776727Y-7691628D01*
X2758186Y-7691628D01*
X2834893Y-7691628D02*
G01*
X2834893Y-7788655D01*
X2834893Y-7691628D02*
G01*
X2894838Y-7691628D01*
X2834893Y-7737855D02*
G01*
X2871724Y-7737855D01*
X2925318Y-7691628D02*
G01*
X2925318Y-7788655D01*
X2925318Y-7691628D02*
G01*
X2985515Y-7691628D01*
X2925318Y-7737855D02*
G01*
X2962402Y-7737855D01*
X2799841Y-7943342D02*
G01*
X2795270Y-7933944D01*
X2785872Y-7924800D01*
X2776727Y-7920228D01*
X2758186Y-7920228D01*
X2749041Y-7924800D01*
X2739643Y-7933944D01*
X2735072Y-7943342D01*
X2730500Y-7957058D01*
X2730500Y-7980171D01*
X2735072Y-7994142D01*
X2739643Y-8003286D01*
X2749041Y-8012429D01*
X2758186Y-8017255D01*
X2776727Y-8017255D01*
X2785872Y-8012429D01*
X2795270Y-8003286D01*
X2799841Y-7994142D01*
X2862579Y-7920228D02*
G01*
X2862579Y-8017255D01*
X2830322Y-7920228D02*
G01*
X2894838Y-7920228D01*
X2925318Y-7920228D02*
G01*
X2925318Y-8017255D01*
X2925318Y-8017255D02*
G01*
X2980690Y-8017255D01*
X3732529Y-7666228D02*
G01*
X3695700Y-7763255D01*
X3732529Y-7666228D02*
G01*
X3769613Y-7763255D01*
X3709670Y-7730744D02*
G01*
X3755643Y-7730744D01*
X3695700Y-7412228D02*
G01*
X3695700Y-7509255D01*
X3695700Y-7412228D02*
G01*
X3737356Y-7412228D01*
X3751072Y-7416800D01*
X3755643Y-7421371D01*
X3760470Y-7430770D01*
X3760470Y-7439913D01*
X3755643Y-7449058D01*
X3751072Y-7453629D01*
X3737356Y-7458455D01*
X3695700Y-7458455D02*
G01*
X3737356Y-7458455D01*
X3751072Y-7463028D01*
X3755643Y-7467600D01*
X3760470Y-7476744D01*
X3760470Y-7490713D01*
X3755643Y-7499858D01*
X3751072Y-7504429D01*
X3737356Y-7509255D01*
X3695700Y-7509255D01*
X3587241Y-7181342D02*
G01*
X3582670Y-7171944D01*
X3573272Y-7162800D01*
X3564127Y-7158228D01*
X3545586Y-7158228D01*
X3536441Y-7162800D01*
X3527043Y-7171944D01*
X3522472Y-7181342D01*
X3517900Y-7195058D01*
X3517900Y-7218171D01*
X3522472Y-7232142D01*
X3527043Y-7241286D01*
X3536441Y-7250429D01*
X3545586Y-7255255D01*
X3564127Y-7255255D01*
X3573272Y-7250429D01*
X3582670Y-7241286D01*
X3587241Y-7232142D01*
X3587241Y-7218171D01*
X3564127Y-7218171D02*
G01*
X3587241Y-7218171D01*
X3617722Y-7158228D02*
G01*
X3617722Y-7255255D01*
X3617722Y-7158228D02*
G01*
X3682238Y-7255255D01*
X3682238Y-7158228D02*
G01*
X3682238Y-7255255D01*
X3712718Y-7158228D02*
G01*
X3712718Y-7255255D01*
X3712718Y-7158228D02*
G01*
X3745229Y-7158228D01*
X3758945Y-7162800D01*
X3768090Y-7171944D01*
X3772915Y-7181342D01*
X3777488Y-7195058D01*
X3777488Y-7218171D01*
X3772915Y-7232142D01*
X3768090Y-7241286D01*
X3758945Y-7250429D01*
X3745229Y-7255255D01*
X3712718Y-7255255D01*
X3587241Y-6927342D02*
G01*
X3582670Y-6917944D01*
X3573272Y-6908800D01*
X3564127Y-6904228D01*
X3545586Y-6904228D01*
X3536441Y-6908800D01*
X3527043Y-6917944D01*
X3522472Y-6927342D01*
X3517900Y-6941058D01*
X3517900Y-6964171D01*
X3522472Y-6978142D01*
X3527043Y-6987286D01*
X3536441Y-6996429D01*
X3545586Y-7001255D01*
X3564127Y-7001255D01*
X3573272Y-6996429D01*
X3582670Y-6987286D01*
X3587241Y-6978142D01*
X3587241Y-6964171D01*
X3564127Y-6964171D02*
G01*
X3587241Y-6964171D01*
X3617722Y-6904228D02*
G01*
X3617722Y-7001255D01*
X3617722Y-6904228D02*
G01*
X3682238Y-7001255D01*
X3682238Y-6904228D02*
G01*
X3682238Y-7001255D01*
X3712718Y-6904228D02*
G01*
X3712718Y-7001255D01*
X3712718Y-6904228D02*
G01*
X3745229Y-6904228D01*
X3758945Y-6908800D01*
X3768090Y-6917944D01*
X3772915Y-6927342D01*
X3777488Y-6941058D01*
X3777488Y-6964171D01*
X3772915Y-6978142D01*
X3768090Y-6987286D01*
X3758945Y-6996429D01*
X3745229Y-7001255D01*
X3712718Y-7001255D01*
X3416300Y-6650228D02*
G01*
X3453129Y-6747255D01*
X3490213Y-6650228D02*
G01*
X3453129Y-6747255D01*
X3548379Y-6650228D02*
G01*
X3539236Y-6654800D01*
X3529838Y-6663944D01*
X3525265Y-6673342D01*
X3520693Y-6687058D01*
X3520693Y-6710171D01*
X3525265Y-6724142D01*
X3529838Y-6733286D01*
X3539236Y-6742429D01*
X3548379Y-6747255D01*
X3566922Y-6747255D01*
X3576065Y-6742429D01*
X3585209Y-6733286D01*
X3590036Y-6724142D01*
X3594608Y-6710171D01*
X3594608Y-6687058D01*
X3590036Y-6673342D01*
X3585209Y-6663944D01*
X3576065Y-6654800D01*
X3566922Y-6650228D01*
X3548379Y-6650228D01*
X3625088Y-6650228D02*
G01*
X3625088Y-6719570D01*
X3629659Y-6733286D01*
X3638804Y-6742429D01*
X3652774Y-6747255D01*
X3661918Y-6747255D01*
X3675888Y-6742429D01*
X3685031Y-6733286D01*
X3689604Y-6719570D01*
X3689604Y-6650228D01*
X3752595Y-6650228D02*
G01*
X3752595Y-6747255D01*
X3720084Y-6650228D02*
G01*
X3784854Y-6650228D01*
X3416300Y-6396228D02*
G01*
X3453129Y-6493255D01*
X3490213Y-6396228D02*
G01*
X3453129Y-6493255D01*
X3548379Y-6396228D02*
G01*
X3539236Y-6400800D01*
X3529838Y-6409944D01*
X3525265Y-6419342D01*
X3520693Y-6433057D01*
X3520693Y-6456171D01*
X3525265Y-6470142D01*
X3529838Y-6479286D01*
X3539236Y-6488429D01*
X3548379Y-6493255D01*
X3566922Y-6493255D01*
X3576065Y-6488429D01*
X3585209Y-6479286D01*
X3590036Y-6470142D01*
X3594608Y-6456171D01*
X3594608Y-6433057D01*
X3590036Y-6419342D01*
X3585209Y-6409944D01*
X3576065Y-6400800D01*
X3566922Y-6396228D01*
X3548379Y-6396228D01*
X3625088Y-6396228D02*
G01*
X3625088Y-6465570D01*
X3629659Y-6479286D01*
X3638804Y-6488429D01*
X3652774Y-6493255D01*
X3661918Y-6493255D01*
X3675888Y-6488429D01*
X3685031Y-6479286D01*
X3689604Y-6465570D01*
X3689604Y-6396228D01*
X3752595Y-6396228D02*
G01*
X3752595Y-6493255D01*
X3720084Y-6396228D02*
G01*
X3784854Y-6396228D01*
D10*
X49784Y-7188200D02*
G01*
X127762Y-7188200D01*
X143255Y-7183120D01*
X153670Y-7172705D01*
X158750Y-7156958D01*
X158750Y-7146544D01*
X153670Y-7131050D01*
X143255Y-7120636D01*
X127762Y-7115555D01*
X49784Y-7115555D01*
X75692Y-7075931D02*
G01*
X70612Y-7075931D01*
X60197Y-7070852D01*
X54863Y-7065518D01*
X49784Y-7055104D01*
X49784Y-7034529D01*
X54863Y-7024115D01*
X60197Y-7018781D01*
X70612Y-7013702D01*
X81026Y-7013702D01*
X91439Y-7018781D01*
X106934Y-7029195D01*
X158750Y-7081265D01*
X158750Y-7008368D01*
D12*
X1994661Y-7915655D02*
G01*
X1994661Y-7865618D01*
X2030984Y-7893050D01*
X2030984Y-7879334D01*
X2035556Y-7870189D01*
X2040127Y-7865618D01*
X2053590Y-7861045D01*
X2062734Y-7861045D01*
X2076450Y-7865618D01*
X2085593Y-7874762D01*
X2090165Y-7888478D01*
X2090165Y-7902194D01*
X2085593Y-7915655D01*
X2081022Y-7920228D01*
X2071877Y-7924800D01*
X2017268Y-7826502D02*
G01*
X2012695Y-7826502D01*
X2003806Y-7822184D01*
X1999234Y-7817612D01*
X1994661Y-7808468D01*
X1994661Y-7790179D01*
X1999234Y-7781289D01*
X2003806Y-7776718D01*
X2012695Y-7772145D01*
X2021840Y-7772145D01*
X2030984Y-7776718D01*
X2044700Y-7785608D01*
X2090165Y-7831073D01*
X2090165Y-7767573D01*
X1994661Y-7737602D02*
G01*
X2090165Y-7737602D01*
X1994661Y-7673847D02*
G01*
X2058161Y-7737602D01*
X2035556Y-7714742D02*
G01*
X2090165Y-7673847D01*
X446125Y-7929016D02*
G01*
X541629Y-7892694D01*
X446125Y-7856372D02*
G01*
X541629Y-7892694D01*
X468731Y-7758328D02*
G01*
X459587Y-7762646D01*
X450697Y-7771790D01*
X446125Y-7780934D01*
X446125Y-7799222D01*
X450697Y-7808112D01*
X459587Y-7817256D01*
X468731Y-7821828D01*
X482447Y-7826400D01*
X505053Y-7826400D01*
X518769Y-7821828D01*
X527913Y-7817256D01*
X537057Y-7808112D01*
X541629Y-7799222D01*
X541629Y-7780934D01*
X537057Y-7771790D01*
X527913Y-7762646D01*
X518769Y-7758328D01*
X468731Y-7660030D02*
G01*
X459587Y-7664602D01*
X450697Y-7673746D01*
X446125Y-7682636D01*
X446125Y-7700924D01*
X450697Y-7710068D01*
X459587Y-7719212D01*
X468731Y-7723784D01*
X482447Y-7728102D01*
X505053Y-7728102D01*
X518769Y-7723784D01*
X527913Y-7719212D01*
X537057Y-7710068D01*
X541629Y-7700924D01*
X541629Y-7682636D01*
X537057Y-7673746D01*
X527913Y-7664602D01*
X518769Y-7660030D01*
X738987Y-7868564D02*
G01*
X729843Y-7873136D01*
X720953Y-7882280D01*
X716381Y-7891170D01*
X716381Y-7909458D01*
X720953Y-7918602D01*
X729843Y-7927746D01*
X738987Y-7932318D01*
X752703Y-7936636D01*
X775309Y-7936636D01*
X789025Y-7932318D01*
X798169Y-7927746D01*
X807313Y-7918602D01*
X811885Y-7909458D01*
X811885Y-7891170D01*
X807313Y-7882280D01*
X798169Y-7873136D01*
X789025Y-7868564D01*
X775309Y-7868564D01*
X775309Y-7891170D02*
G01*
X775309Y-7868564D01*
X716381Y-7838592D02*
G01*
X811885Y-7838592D01*
X716381Y-7838592D02*
G01*
X811885Y-7774838D01*
X716381Y-7774838D02*
G01*
X811885Y-7774838D01*
X716381Y-7744866D02*
G01*
X811885Y-7744866D01*
X716381Y-7744866D02*
G01*
X716381Y-7713116D01*
X720953Y-7699400D01*
X729843Y-7690256D01*
X738987Y-7685938D01*
X752703Y-7681366D01*
X775309Y-7681366D01*
X789025Y-7685938D01*
X798169Y-7690256D01*
X807313Y-7699400D01*
X811885Y-7713116D01*
X811885Y-7744866D01*
X983843Y-7873136D02*
G01*
X974953Y-7882280D01*
X970381Y-7895742D01*
X970381Y-7914030D01*
X974953Y-7927746D01*
X983843Y-7936636D01*
X992987Y-7936636D01*
X1002131Y-7932318D01*
X1006703Y-7927746D01*
X1011275Y-7918602D01*
X1020419Y-7891170D01*
X1024737Y-7882280D01*
X1029309Y-7877708D01*
X1038453Y-7873136D01*
X1052169Y-7873136D01*
X1061313Y-7882280D01*
X1065885Y-7895742D01*
X1065885Y-7914030D01*
X1061313Y-7927746D01*
X1052169Y-7936636D01*
X992987Y-7774838D02*
G01*
X983843Y-7779410D01*
X974953Y-7788554D01*
X970381Y-7797698D01*
X970381Y-7815732D01*
X974953Y-7824876D01*
X983843Y-7834020D01*
X992987Y-7838592D01*
X1006703Y-7843164D01*
X1029309Y-7843164D01*
X1043025Y-7838592D01*
X1052169Y-7834020D01*
X1061313Y-7824876D01*
X1065885Y-7815732D01*
X1065885Y-7797698D01*
X1061313Y-7788554D01*
X1052169Y-7779410D01*
X1043025Y-7774838D01*
X970381Y-7744866D02*
G01*
X1065885Y-7744866D01*
X1065885Y-7744866D02*
G01*
X1065885Y-7690256D01*
X1237843Y-7873136D02*
G01*
X1228953Y-7882280D01*
X1224381Y-7895742D01*
X1224381Y-7914030D01*
X1228953Y-7927746D01*
X1237843Y-7936636D01*
X1246987Y-7936636D01*
X1256131Y-7932318D01*
X1260703Y-7927746D01*
X1265275Y-7918602D01*
X1274419Y-7891170D01*
X1278737Y-7882280D01*
X1283309Y-7877708D01*
X1292453Y-7873136D01*
X1306169Y-7873136D01*
X1315313Y-7882280D01*
X1319885Y-7895742D01*
X1319885Y-7914030D01*
X1315313Y-7927746D01*
X1306169Y-7936636D01*
X1224381Y-7843164D02*
G01*
X1319885Y-7843164D01*
X1224381Y-7843164D02*
G01*
X1224381Y-7811160D01*
X1228953Y-7797698D01*
X1237843Y-7788554D01*
X1246987Y-7783982D01*
X1260703Y-7779410D01*
X1283309Y-7779410D01*
X1297025Y-7783982D01*
X1306169Y-7788554D01*
X1315313Y-7797698D01*
X1319885Y-7811160D01*
X1319885Y-7843164D01*
X1224381Y-7713116D02*
G01*
X1319885Y-7749438D01*
X1224381Y-7713116D02*
G01*
X1319885Y-7676794D01*
X1287881Y-7735722D02*
G01*
X1287881Y-7690256D01*
X1465681Y-7923936D02*
G01*
X1561185Y-7923936D01*
X1465681Y-7893964D02*
G01*
X1561185Y-7893964D01*
X1465681Y-7893964D02*
G01*
X1561185Y-7830464D01*
X1465681Y-7830464D02*
G01*
X1561185Y-7830464D01*
X1465681Y-7768488D02*
G01*
X1561185Y-7768488D01*
X1465681Y-7800492D02*
G01*
X1465681Y-7736738D01*
X1719681Y-7923936D02*
G01*
X1815185Y-7923936D01*
X1719681Y-7923936D02*
G01*
X1719681Y-7883042D01*
X1724253Y-7869580D01*
X1728825Y-7865008D01*
X1737715Y-7860436D01*
X1746859Y-7860436D01*
X1756003Y-7865008D01*
X1760575Y-7869580D01*
X1765147Y-7883042D01*
X1765147Y-7923936D01*
X1765147Y-7892186D02*
G01*
X1815185Y-7860436D01*
X1733143Y-7766710D02*
G01*
X1724253Y-7775854D01*
X1719681Y-7789570D01*
X1719681Y-7807604D01*
X1724253Y-7821320D01*
X1733143Y-7830464D01*
X1742287Y-7830464D01*
X1751431Y-7825892D01*
X1756003Y-7821320D01*
X1760575Y-7812176D01*
X1769719Y-7784998D01*
X1774037Y-7775854D01*
X1778609Y-7771282D01*
X1787753Y-7766710D01*
X1801469Y-7766710D01*
X1810613Y-7775854D01*
X1815185Y-7789570D01*
X1815185Y-7807604D01*
X1810613Y-7821320D01*
X1801469Y-7830464D01*
X1719681Y-7704988D02*
G01*
X1815185Y-7704988D01*
X1719681Y-7736738D02*
G01*
X1719681Y-7673238D01*
D11*
X252221Y-7518400D02*
G01*
X446023Y-7518400D01*
X252221Y-7518400D02*
G01*
X252221Y-7453629D01*
X261365Y-7425944D01*
X279907Y-7407655D01*
X298450Y-7398258D01*
X326136Y-7389113D01*
X372110Y-7389113D01*
X400050Y-7398258D01*
X418337Y-7407655D01*
X436879Y-7425944D01*
X446023Y-7453629D01*
X446023Y-7518400D01*
X279907Y-7198868D02*
G01*
X261365Y-7217410D01*
X252221Y-7245095D01*
X252221Y-7281926D01*
X261365Y-7309612D01*
X279907Y-7328154D01*
X298450Y-7328154D01*
X316737Y-7319010D01*
X326136Y-7309612D01*
X335279Y-7291070D01*
X353821Y-7235697D01*
X362965Y-7217410D01*
X372110Y-7208012D01*
X390652Y-7198868D01*
X418337Y-7198868D01*
X436879Y-7217410D01*
X446023Y-7245095D01*
X446023Y-7281926D01*
X436879Y-7309612D01*
X418337Y-7328154D01*
X252221Y-7119365D02*
G01*
X252221Y-7017765D01*
X326136Y-7073137D01*
X326136Y-7045452D01*
X335279Y-7026910D01*
X344423Y-7017765D01*
X372110Y-7008621D01*
X390652Y-7008621D01*
X418337Y-7017765D01*
X436879Y-7036308D01*
X446023Y-7063994D01*
X446023Y-7091679D01*
X436879Y-7119365D01*
X427736Y-7128510D01*
X409194Y-7137908D01*
X298450Y-6938263D02*
G01*
X289052Y-6938263D01*
X270510Y-6929120D01*
X261365Y-6919976D01*
X252221Y-6901434D01*
X252221Y-6864350D01*
X261365Y-6846062D01*
X270510Y-6836663D01*
X289052Y-6827520D01*
X307594Y-6827520D01*
X326136Y-6836663D01*
X353821Y-6855205D01*
X446023Y-6947662D01*
X446023Y-6818376D01*
X252221Y-6738873D02*
G01*
X252221Y-6637273D01*
X326136Y-6692645D01*
X326136Y-6664960D01*
X335279Y-6646418D01*
X344423Y-6637273D01*
X372110Y-6628129D01*
X390652Y-6628129D01*
X418337Y-6637273D01*
X436879Y-6655815D01*
X446023Y-6683502D01*
X446023Y-6711187D01*
X436879Y-6738873D01*
X427736Y-6748018D01*
X409194Y-6757415D01*
X289052Y-6567170D02*
G01*
X279907Y-6548628D01*
X252221Y-6520942D01*
X446023Y-6520942D01*
D13*
X2717787Y-9728580D02*
G01*
X2720835Y-9895459D01*
X3733787Y-9889617D01*
X3733787Y-9735438D01*
X3073400Y-8699500D02*
G01*
X3073400Y-8775700D01*
X3111500Y-8775700D01*
X3111500Y-8978900D01*
X3352800Y-8978900D01*
X3352800Y-8775700D01*
X3378200Y-8775700D01*
X3378200Y-8699500D01*
X3568700Y-8712200D02*
G01*
X3568700Y-8775700D01*
X3606800Y-8775700D01*
X3606800Y-8978900D01*
X3733800Y-8978900D01*
X3733787Y-9075801D01*
X2882900Y-8712200D02*
G01*
X2882900Y-8775700D01*
X2844800Y-8775700D01*
X2844800Y-8966200D01*
X2717800Y-8966200D01*
X2717787Y-9075801D01*
X3733787Y-9475492D02*
G01*
X3733787Y-9075801D01*
X2717787Y-9475492D02*
G01*
X2717787Y-9075801D01*
X3890787Y-9436432D02*
G01*
X3890787Y-9735510D01*
X2560787Y-9438972D02*
G01*
X2560787Y-9728532D01*
X3733787Y-9735510D02*
G01*
X3890787Y-9735510D01*
X2560787Y-9728532D02*
G01*
X2717787Y-9728532D01*
X3733787Y-9436432D02*
G01*
X3890787Y-9436432D01*
X2560787Y-9438972D02*
G01*
X2717787Y-9438972D01*
D11*
X2908300Y-5892800D02*
G01*
X2908300Y-3606800D01*
X1358900Y-3606800D02*
G01*
X2908300Y-3606800D01*
D14*
X2806700Y-5816600D02*
G01*
X2781300Y-5816600D01*
X2603500Y-5816600D01*
X2603500Y-5588000D01*
X2374900Y-5588000D01*
X2374900Y-5816600D01*
X2146300Y-5816600D01*
X2146300Y-5588000D01*
X1917700Y-5588000D01*
X1917700Y-5816600D01*
X1511300Y-5816600D01*
X2806700Y-5816600D02*
G01*
X2806700Y-5486400D01*
X1689100Y-5816600D02*
G01*
X1689227Y-5460923D01*
X1511300Y-5816600D02*
G01*
X1511427Y-5460923D01*
D11*
X1358900Y-5892800D02*
G01*
X1358900Y-3606800D01*
X1358900Y-5892800D02*
G01*
X2832100Y-5892800D01*
X1485900Y-3733800D02*
G01*
X2755900Y-3733800D01*
X1485900Y-5257800D02*
G01*
X2755900Y-5257800D01*
X1485900Y-5257800D02*
G01*
X1485900Y-3733800D01*
X2755900Y-5257800D02*
G01*
X2755900Y-3733800D01*
D15*
X723900Y-127000D02*
G01*
X723900Y-5892800D01*
D11*
X723900Y-5892800D02*
G01*
X3517900Y-5892800D01*
X723900Y-127000D02*
G01*
X1739900Y-127000D01*
X1739900Y-127000D01*
X2501900Y-127000D01*
X2501900Y-127000D01*
X3517900Y-127000D01*
X3517900Y-127000D02*
G01*
X3517900Y-5892800D01*
D15*
X1231900Y-127000D02*
G01*
X1231900Y-660400D01*
X1993900Y-660400D01*
X1993900Y-127000D01*
X2247900Y-127000D02*
G01*
X2247900Y-762000D01*
X3009900Y-762000D01*
X3009900Y-127000D01*
D11*
X1968500Y-9728200D02*
G01*
X1968500Y-9476739D01*
X2476500Y-9476739D01*
X2476500Y-9728200D01*
X1968500Y-9728200D01*
D13*
X3632200Y-6111747D02*
G01*
X3886987Y-6112281D01*
X901700Y-9740900D02*
G01*
X774700Y-9740900D01*
X774700Y-9740900D02*
G01*
X711200Y-9677400D01*
X711200Y-9550400D02*
G01*
X774700Y-9486900D01*
X1219200Y-9677400D02*
G01*
X1155700Y-9740900D01*
X1155700Y-9740900D02*
G01*
X1028700Y-9740900D01*
X1028700Y-9740900D02*
G01*
X965200Y-9677400D01*
X965200Y-9550400D02*
G01*
X1028700Y-9486900D01*
X1028700Y-9486900D02*
G01*
X1155700Y-9486900D01*
X1155700Y-9486900D02*
G01*
X1219200Y-9550400D01*
X901700Y-9740900D02*
G01*
X965200Y-9677400D01*
X965200Y-9550400D02*
G01*
X901700Y-9486900D01*
X774700Y-9486900D02*
G01*
X901700Y-9486900D01*
X1663700Y-9740900D02*
G01*
X1536700Y-9740900D01*
X1536700Y-9740900D02*
G01*
X1473200Y-9677400D01*
X1473200Y-9550400D02*
G01*
X1536700Y-9486900D01*
X1473200Y-9677400D02*
G01*
X1409700Y-9740900D01*
X1409700Y-9740900D02*
G01*
X1282700Y-9740900D01*
X1282700Y-9740900D02*
G01*
X1219200Y-9677400D01*
X1219200Y-9550400D02*
G01*
X1282700Y-9486900D01*
X1282700Y-9486900D02*
G01*
X1409700Y-9486900D01*
X1409700Y-9486900D02*
G01*
X1473200Y-9550400D01*
X1727200Y-9677400D02*
G01*
X1727200Y-9550400D01*
X1663700Y-9740900D02*
G01*
X1727200Y-9677400D01*
X1727200Y-9550400D02*
G01*
X1663700Y-9486900D01*
X1536700Y-9486900D02*
G01*
X1663700Y-9486900D01*
X711200Y-9677400D02*
G01*
X711200Y-9550400D01*
X3644900Y-5321300D02*
G01*
X3644900Y-4813300D01*
X3644900Y-4813300D02*
G01*
X3721100Y-4813300D01*
X3721100Y-4813300D02*
G01*
X3797300Y-4813300D01*
X3797300Y-4813300D02*
G01*
X3797300Y-5321300D01*
X3797300Y-5321300D02*
G01*
X3721100Y-5321300D01*
X3721100Y-5321300D02*
G01*
X3644900Y-5321300D01*
X3721100Y-4813300D02*
G01*
X3721100Y-4787900D01*
X3721100Y-5321300D02*
G01*
X3721100Y-5346700D01*
D16*
X2837103Y-451002D02*
G01*
X1567103Y-451002D01*
X1567103Y-800988D02*
G01*
X1567103Y-1137996D01*
X2837103Y-1137996D01*
X2837103Y-800988D01*
D17*
X4025391Y-8103108D02*
G01*
X2501391Y-8103108D01*
X2501391Y-6325107D01*
X4025391Y-6325107D01*
X4025391Y-8103108D01*
D13*
X2298700Y-8318500D02*
G01*
X190500Y-8318500D01*
X203200Y-6019800D01*
X2298700Y-6019800D01*
D11*
X571500Y-7975600D02*
G01*
X381000Y-7975600D01*
X381000Y-8229600D01*
X2197100Y-8229600D01*
X2197100Y-7975600D01*
X1905000Y-7975600D01*
D13*
X2298700Y-8318500D02*
G01*
X2298700Y-6019800D01*
D18*
X1905000Y-7975600D02*
G01*
X571500Y-7975600D01*
D13*
G75*
G01*
X3885743Y-6111748D02*
G03*
X3632251Y-6111748I-126746J154710D01*
D19*
G75*
G01*
X1541602Y-1561008D02*
G02*
X1541602Y-1580998I-504J-9995D01*
G75*
G01*
X1541602Y-1580998D02*
G02*
X1541602Y-1561008I504J9995D01*
D13*
G75*
G01
X3441700Y-330200D02*
G03X3441700Y-330200I-127000J0D01*
G75*
G01
X1054100Y-330200D02*
G03X1054100Y-330200I-127000J0D01*
G75*
G01
X1054100Y-5689600D02*
G03X1054100Y-5689600I-127000J0D01*
G75*
G01
X3441700Y-5689600D02*
G03X3441700Y-5689600I-127000J0D01*
G75*
G01
X2082698Y-7118502D02*
G03X2082698Y-7118502I-799998J0D01*
G75*
G01
X2121535Y-6324600D02*
G03X2121535Y-6324600I-127635J0D01*
G75*
G01
X608889Y-6324600D02*
G03X608889Y-6324600I-113589J0D01*
M02*
