G04 Layer: TopSolderMaskLayer*
G04 EasyEDA v6.5.46, 2026-01-20 15:08:04*
G04 c055b5996b2b4ee9ab75fef97cfab9db,2531f63ba3b24be780b21f3747bff2ee,10*
G04 Gerber Generator version 0.2*
G04 Scale: 100 percent, Rotated: No, Reflected: No *
G04 Dimensions in millimeters *
G04 leading zeros omitted , absolute positions ,4 integer and 5 decimal *
%FSLAX45Y45*%
%MOMM*%

%AMMACRO1*4,1,8,-0.8711,-0.9008,-0.9008,-0.8708,-0.9008,0.8711,-0.8711,0.9008,0.8708,0.9008,0.9008,0.8711,0.9008,-0.8708,0.8708,-0.9008,-0.8711,-0.9008,0*%
%AMMACRO2*4,1,8,-0.8085,-0.8382,-0.8382,-0.8082,-0.8382,0.8085,-0.8085,0.8382,0.8082,0.8382,0.8382,0.8085,0.8382,-0.8082,0.8082,-0.8382,-0.8085,-0.8382,0*%
%AMMACRO3*4,1,8,-0.9609,-0.9906,-0.9906,-0.9606,-0.9906,0.9609,-0.9609,0.9906,0.9606,0.9906,0.9906,0.9609,0.9906,-0.9606,0.9606,-0.9906,-0.9609,-0.9906,0*%
%AMMACRO4*4,1,8,-0.7704,-0.8001,-0.8001,-0.7701,-0.8001,0.7704,-0.7704,0.8001,0.7701,0.8001,0.8001,0.7704,0.8001,-0.7701,0.7701,-0.8001,-0.7704,-0.8001,0*%
%AMMACRO5*4,1,8,-0.8296,-0.889,-0.889,-0.8293,-0.889,0.8296,-0.8296,0.889,0.8293,0.889,0.889,0.8296,0.889,-0.8293,0.8293,-0.889,-0.8296,-0.889,0*%
%ADD10C,2.6016*%
%ADD11C,1.9016*%
%ADD12C,1.8016*%
%ADD13MACRO1*%
%ADD14MACRO2*%
%ADD15C,1.6764*%
%ADD16C,1.7526*%
%ADD17MACRO3*%
%ADD18C,1.9812*%
%ADD19C,2.8766*%
%ADD20C,1.6002*%
%ADD21MACRO4*%
%ADD22MACRO5*%
%ADD23C,1.7780*%
%ADD24C,1.7272*%
%ADD25C,4.2032*%

%LPD*%
D10*
G01*
X2975813Y-8580501D03*
G01*
X3475786Y-8580501D03*
D11*
G01*
X3775811Y-9580499D03*
G01*
X2675788Y-9580499D03*
D12*
G01*
X850900Y-4953000D03*
G01*
X850900Y-4699000D03*
G01*
X850900Y-4445000D03*
G01*
X850900Y-4191000D03*
G01*
X850900Y-3937000D03*
G01*
X850900Y-3683000D03*
G01*
X850900Y-3429000D03*
G01*
X850900Y-3175000D03*
G01*
X850900Y-2921000D03*
G01*
X850900Y-2667000D03*
G01*
X850900Y-2413000D03*
G01*
X850900Y-2159000D03*
G01*
X850900Y-1905000D03*
G01*
X850900Y-1651000D03*
G01*
X850900Y-1397000D03*
G01*
X3390900Y-4699000D03*
G01*
X3390900Y-4445000D03*
G01*
X3390900Y-4191000D03*
G01*
X3390900Y-3937000D03*
G01*
X3390900Y-3683000D03*
G01*
X3390900Y-3429000D03*
G01*
X3390900Y-3175000D03*
G01*
X3390900Y-2921000D03*
G01*
X3390900Y-2667000D03*
G01*
X3390900Y-2413000D03*
G01*
X3390900Y-2159000D03*
G01*
X3390900Y-1905000D03*
G01*
X3390900Y-1651000D03*
G01*
X3390900Y-1397000D03*
G01*
X3390900Y-4953000D03*
G01*
X850900Y-1143000D03*
G01*
X850900Y-889000D03*
D13*
G01*
X850912Y-5207012D03*
G01*
X3390912Y-5207012D03*
D12*
G01*
X3390900Y-1143000D03*
G01*
X3390900Y-889000D03*
D14*
G01*
X2349500Y-9601200D03*
D15*
G01*
X2095500Y-9601200D03*
D16*
G01*
X3759200Y-5816600D03*
G01*
X3759200Y-6070600D03*
D17*
G01*
X1600200Y-9613900D03*
D18*
G01*
X1346200Y-9613900D03*
G01*
X1092200Y-9613900D03*
G01*
X838200Y-9613900D03*
G01*
X3721100Y-5448300D03*
G01*
X3721100Y-4686300D03*
D19*
G01*
X1732102Y-1569491D03*
G01*
X2202103Y-1569491D03*
G01*
X2672105Y-1569491D03*
G01*
X2862605Y-616508D03*
G01*
X1541602Y-616508D03*
D20*
G01*
X3898900Y-6451600D03*
G01*
X3898900Y-6705600D03*
G01*
X3898900Y-6959600D03*
G01*
X3898900Y-7213600D03*
G01*
X3898900Y-7721600D03*
G01*
X3898900Y-7467600D03*
G01*
X2628900Y-7467600D03*
D21*
G01*
X2628900Y-7975600D03*
D20*
G01*
X2628900Y-7721600D03*
D21*
G01*
X2628900Y-7213600D03*
G01*
X2628900Y-6959600D03*
D20*
G01*
X2628900Y-6705600D03*
G01*
X2628900Y-6451600D03*
D22*
G01*
X508000Y-8102600D03*
D23*
G01*
X762000Y-8102600D03*
G01*
X1016000Y-8102600D03*
G01*
X1270000Y-8102600D03*
G01*
X1524000Y-8102600D03*
G01*
X1778000Y-8102600D03*
D24*
G01*
X2044700Y-8102600D03*
D25*
G01*
X2095500Y-7508290D03*
G01*
X2095500Y-340309D03*
M02*
