G04 Layer: TopLayer*
G04 EasyEDA v6.5.46, 2026-01-20 15:08:04*
G04 c055b5996b2b4ee9ab75fef97cfab9db,2531f63ba3b24be780b21f3747bff2ee,10*
G04 Gerber Generator version 0.2*
G04 Scale: 100 percent, Rotated: No, Reflected: No *
G04 Dimensions in millimeters *
G04 leading zeros omitted , absolute positions ,4 integer and 5 decimal *
%FSLAX45Y45*%
%MOMM*%

%ADD10C,0.4000*%
%ADD11C,2.5000*%
%ADD12C,1.8000*%
%ADD13C,1.7000*%
%ADD14R,1.7000X1.7000*%
%ADD15R,1.5748X1.5748*%
%ADD16C,1.5748*%
%ADD17C,1.6510*%
%ADD18R,1.8796X1.8796*%
%ADD19C,1.8796*%
%ADD20C,2.7750*%
%ADD21C,1.4986*%
%ADD22R,1.4986X1.4986*%
%ADD23C,1.5240*%
%ADD24C,4.0000*%

%LPD*%
D10*
X2095500Y-7508239D02*
G01*
X2298700Y-7711439D01*
X2298700Y-9398000D01*
X2095500Y-9601200D01*
X1270000Y-8102600D02*
G01*
X1270000Y-2971800D01*
X965200Y-2667000D01*
X850900Y-2667000D01*
X3390900Y-3937000D02*
G01*
X3053841Y-4274057D01*
X3060700Y-7670800D01*
X2755900Y-7975600D01*
X2628900Y-7975600D01*
X2628900Y-6451600D02*
G01*
X2202103Y-6024803D01*
X2202103Y-1569491D01*
X3475736Y-8580374D02*
G01*
X3213861Y-8318500D01*
X2705100Y-8318500D01*
X2413000Y-8026400D01*
X2413000Y-7416800D01*
X1732026Y-6735826D01*
X1732026Y-1569465D01*
X850900Y-2413000D02*
G01*
X558800Y-2705100D01*
X558800Y-5867400D01*
X1016000Y-6324600D01*
X1016000Y-8102600D01*
D11*
G01*
X2975813Y-8580501D03*
G01*
X3475786Y-8580501D03*
D12*
G01*
X3775811Y-9580499D03*
G01*
X2675788Y-9580499D03*
D13*
G01*
X850900Y-4953000D03*
G01*
X850900Y-4699000D03*
G01*
X850900Y-4445000D03*
G01*
X850900Y-4191000D03*
G01*
X850900Y-3937000D03*
G01*
X850900Y-3683000D03*
G01*
X850900Y-3429000D03*
G01*
X850900Y-3175000D03*
G01*
X850900Y-2921000D03*
G01*
X850900Y-2667000D03*
G01*
X850900Y-2413000D03*
G01*
X850900Y-2159000D03*
G01*
X850900Y-1905000D03*
G01*
X850900Y-1651000D03*
G01*
X850900Y-1397000D03*
G01*
X3390900Y-4699000D03*
G01*
X3390900Y-4445000D03*
G01*
X3390900Y-4191000D03*
G01*
X3390900Y-3937000D03*
G01*
X3390900Y-3683000D03*
G01*
X3390900Y-3429000D03*
G01*
X3390900Y-3175000D03*
G01*
X3390900Y-2921000D03*
G01*
X3390900Y-2667000D03*
G01*
X3390900Y-2413000D03*
G01*
X3390900Y-2159000D03*
G01*
X3390900Y-1905000D03*
G01*
X3390900Y-1651000D03*
G01*
X3390900Y-1397000D03*
G01*
X3390900Y-4953000D03*
G01*
X850900Y-1143000D03*
G01*
X850900Y-889000D03*
D14*
G01*
X850925Y-5207025D03*
G01*
X3390925Y-5207025D03*
D13*
G01*
X3390900Y-1143000D03*
G01*
X3390900Y-889000D03*
D15*
G01*
X2349500Y-9601200D03*
D16*
G01*
X2095500Y-9601200D03*
D17*
G01*
X3759200Y-5816600D03*
G01*
X3759200Y-6070600D03*
D18*
G01*
X1600200Y-9613900D03*
D19*
G01*
X1346200Y-9613900D03*
G01*
X1092200Y-9613900D03*
G01*
X838200Y-9613900D03*
G01*
X3721100Y-5448300D03*
G01*
X3721100Y-4686300D03*
D20*
G01*
X1732102Y-1569491D03*
G01*
X2202103Y-1569491D03*
G01*
X2672105Y-1569491D03*
G01*
X2862605Y-616508D03*
G01*
X1541602Y-616508D03*
D21*
G01*
X3898900Y-6451600D03*
G01*
X3898900Y-6705600D03*
G01*
X3898900Y-6959600D03*
G01*
X3898900Y-7213600D03*
G01*
X3898900Y-7721600D03*
G01*
X3898900Y-7467600D03*
G01*
X2628900Y-7467600D03*
D22*
G01*
X2628900Y-7975600D03*
D21*
G01*
X2628900Y-7721600D03*
D22*
G01*
X2628900Y-7213600D03*
G01*
X2628900Y-6959600D03*
D21*
G01*
X2628900Y-6705600D03*
G01*
X2628900Y-6451600D03*
D15*
G01*
X508000Y-8102600D03*
D16*
G01*
X762000Y-8102600D03*
G01*
X1016000Y-8102600D03*
G01*
X1270000Y-8102600D03*
G01*
X1524000Y-8102600D03*
G01*
X1778000Y-8102600D03*
D23*
G01*
X2044700Y-8102600D03*
D24*
G01*
X2095500Y-7508290D03*
G01*
X2095500Y-340309D03*
M02*
