G04 Layer: BottomSilkscreenLayer*
G04 EasyEDA v6.5.46, 2026-01-20 15:08:04*
G04 c055b5996b2b4ee9ab75fef97cfab9db,2531f63ba3b24be780b21f3747bff2ee,10*
G04 Gerber Generator version 0.2*
G04 Scale: 100 percent, Rotated: No, Reflected: No *
G04 Dimensions in millimeters *
G04 leading zeros omitted , absolute positions ,4 integer and 5 decimal *
%FSLAX45Y45*%
%MOMM*%

%ADD10C,0.1524*%
%ADD11C,0.2032*%
%ADD12C,0.2540*%

%LPD*%
D10*
X3303015Y-3949700D02*
G01*
X3225038Y-3949700D01*
X3209543Y-3944620D01*
X3199129Y-3934205D01*
X3194050Y-3918457D01*
X3194050Y-3908044D01*
X3199129Y-3892550D01*
X3209543Y-3882136D01*
X3225038Y-3877055D01*
X3303015Y-3877055D01*
X3303015Y-3780281D02*
G01*
X3303015Y-3832352D01*
X3256279Y-3837431D01*
X3261359Y-3832352D01*
X3266693Y-3816604D01*
X3266693Y-3801110D01*
X3261359Y-3785615D01*
X3251200Y-3775202D01*
X3235452Y-3769868D01*
X3225038Y-3769868D01*
X3209543Y-3775202D01*
X3199129Y-3785615D01*
X3194050Y-3801110D01*
X3194050Y-3816604D01*
X3199129Y-3832352D01*
X3204209Y-3837431D01*
X3214624Y-3842765D01*
D11*
X2572791Y-7541249D02*
G01*
X2406675Y-7541249D01*
X2489733Y-7624307D02*
G01*
X2489733Y-7457937D01*
X2489733Y-424291D02*
G01*
X2489733Y-257921D01*
X2808477Y-4686300D02*
G01*
X2614675Y-4686300D01*
X2808477Y-4686300D02*
G01*
X2808477Y-4603242D01*
X2799334Y-4575555D01*
X2790190Y-4566157D01*
X2771647Y-4557013D01*
X2753106Y-4557013D01*
X2734563Y-4566157D01*
X2725420Y-4575555D01*
X2716275Y-4603242D01*
X2716275Y-4686300D02*
G01*
X2716275Y-4603242D01*
X2706877Y-4575555D01*
X2697734Y-4566157D01*
X2679191Y-4557013D01*
X2651506Y-4557013D01*
X2632963Y-4566157D01*
X2623820Y-4575555D01*
X2614675Y-4603242D01*
X2614675Y-4686300D01*
X2808477Y-4422139D02*
G01*
X2614675Y-4496054D01*
X2808477Y-4422139D02*
G01*
X2614675Y-4348226D01*
X2679191Y-4468368D02*
G01*
X2679191Y-4375912D01*
X2808477Y-4222750D02*
G01*
X2614675Y-4222750D01*
X2808477Y-4287265D02*
G01*
X2808477Y-4157979D01*
X2808477Y-4032250D02*
G01*
X2614675Y-4032250D01*
X2808477Y-4097020D02*
G01*
X2808477Y-3967734D01*
X2808477Y-3906773D02*
G01*
X2614675Y-3906773D01*
X2808477Y-3906773D02*
G01*
X2808477Y-3786631D01*
X2716275Y-3906773D02*
G01*
X2716275Y-3832860D01*
X2614675Y-3906773D02*
G01*
X2614675Y-3786631D01*
X2808477Y-3725671D02*
G01*
X2614675Y-3725671D01*
X2808477Y-3725671D02*
G01*
X2808477Y-3642613D01*
X2799334Y-3614928D01*
X2790190Y-3605529D01*
X2771647Y-3596386D01*
X2753106Y-3596386D01*
X2734563Y-3605529D01*
X2725420Y-3614928D01*
X2716275Y-3642613D01*
X2716275Y-3725671D01*
X2716275Y-3661155D02*
G01*
X2614675Y-3596386D01*
X2808477Y-3535426D02*
G01*
X2716275Y-3461512D01*
X2614675Y-3461512D01*
X2808477Y-3387597D02*
G01*
X2716275Y-3461512D01*
X2697734Y-3326637D02*
G01*
X2697734Y-3160521D01*
X2771647Y-3099562D02*
G01*
X2780791Y-3081020D01*
X2808477Y-3053334D01*
X2614675Y-3053334D01*
X2808477Y-2946145D02*
G01*
X2799334Y-2973831D01*
X2780791Y-2983229D01*
X2762250Y-2983229D01*
X2743961Y-2973831D01*
X2734563Y-2955289D01*
X2725420Y-2918460D01*
X2716275Y-2890773D01*
X2697734Y-2872231D01*
X2679191Y-2863087D01*
X2651506Y-2863087D01*
X2632963Y-2872231D01*
X2623820Y-2881629D01*
X2614675Y-2909315D01*
X2614675Y-2946145D01*
X2623820Y-2973831D01*
X2632963Y-2983229D01*
X2651506Y-2992373D01*
X2679191Y-2992373D01*
X2697734Y-2983229D01*
X2716275Y-2964687D01*
X2725420Y-2937002D01*
X2734563Y-2899918D01*
X2743961Y-2881629D01*
X2762250Y-2872231D01*
X2780791Y-2872231D01*
X2799334Y-2881629D01*
X2808477Y-2909315D01*
X2808477Y-2946145D01*
X2780791Y-2691129D02*
G01*
X2799334Y-2700528D01*
X2808477Y-2728213D01*
X2808477Y-2746755D01*
X2799334Y-2774442D01*
X2771647Y-2792729D01*
X2725420Y-2802128D01*
X2679191Y-2802128D01*
X2642361Y-2792729D01*
X2623820Y-2774442D01*
X2614675Y-2746755D01*
X2614675Y-2737357D01*
X2623820Y-2709671D01*
X2642361Y-2691129D01*
X2670047Y-2681986D01*
X2679191Y-2681986D01*
X2706877Y-2691129D01*
X2725420Y-2709671D01*
X2734563Y-2737357D01*
X2734563Y-2746755D01*
X2725420Y-2774442D01*
X2706877Y-2792729D01*
X2679191Y-2802128D01*
X2808477Y-2510281D02*
G01*
X2808477Y-2602484D01*
X2725420Y-2611881D01*
X2734563Y-2602484D01*
X2743961Y-2574797D01*
X2743961Y-2547112D01*
X2734563Y-2519426D01*
X2716275Y-2500884D01*
X2688590Y-2491739D01*
X2670047Y-2491739D01*
X2642361Y-2500884D01*
X2623820Y-2519426D01*
X2614675Y-2547112D01*
X2614675Y-2574797D01*
X2623820Y-2602484D01*
X2632963Y-2611881D01*
X2651506Y-2621026D01*
X2808477Y-2375407D02*
G01*
X2799334Y-2403094D01*
X2771647Y-2421636D01*
X2725420Y-2430779D01*
X2697734Y-2430779D01*
X2651506Y-2421636D01*
X2623820Y-2403094D01*
X2614675Y-2375407D01*
X2614675Y-2356865D01*
X2623820Y-2329179D01*
X2651506Y-2310637D01*
X2697734Y-2301494D01*
X2725420Y-2301494D01*
X2771647Y-2310637D01*
X2799334Y-2329179D01*
X2808477Y-2356865D01*
X2808477Y-2375407D01*
X1272788Y-8041248D02*
G01*
X1106672Y-8041248D01*
X1189730Y-8124306D02*
G01*
X1189730Y-7957936D01*
X1189807Y75819D02*
G01*
X1189807Y241935D01*
D12*
X3145485Y-7824292D02*
G01*
X3145485Y-24282D01*
X1045489Y-24282D01*
X1045489Y-7824292D01*
X3145485Y-7824292D01*
M02*
